<svg width="350" height="350" viewBox="0 0 350 350" fill="none" xmlns="http://www.w3.org/2000/svg">
<path d="M97.1784 233.025C98.2807 225.965 99.4093 218.913 100.477 211.853C102.559 198.031 104.291 184.155 106.741 170.394C110.266 150.578 131.193 139.433 149.819 147.061C150.554 147.359 151.297 147.656 152.373 148.085C154.735 132.329 157.071 116.73 159.433 101C161.918 101 164.28 101 166.957 101C164.411 118.095 161.883 135.032 159.302 152.398C170.806 143.711 182.748 142.486 195.582 148.724C197.997 132.661 200.368 116.809 202.748 101C205.355 101 207.656 101 210.263 101C207.726 118.068 205.215 134.945 202.616 152.398C211.54 145.627 220.945 143.168 231.364 145.845C238.801 147.761 244.776 151.952 249.22 158.216C258.074 170.7 256.586 187.882 245.922 198.713C235.476 209.316 216.422 212.553 201.689 199.71C195.635 204.977 188.636 207.978 180.482 208.065C172.32 208.153 165.234 205.379 158.812 199.99C154.473 203.673 149.495 206.141 143.966 207.453C136.748 208.608 129.828 207.628 123.205 204.522H123.214C121.631 203.525 120.038 202.536 118.455 201.539L118.472 201.565C118.289 201.416 118.096 201.268 117.913 201.11L117.93 201.119C115.594 198.643 113.25 196.158 110.721 193.473C107.939 212.221 105.175 230.812 102.419 249.402C102.261 249.472 102.104 249.551 101.946 249.621C99.6717 249.621 97.4059 249.621 95 249.621C95.7699 243.759 96.4698 238.397 97.1784 233.025ZM164.901 195.091L164.997 195.17C167.473 196.517 169.949 197.864 172.434 199.212C180.649 202.274 191.689 199.754 196.659 193.613C196.387 193.096 196.099 192.536 195.801 191.977C192.004 185.083 190.954 177.786 192.328 170.053C193.352 164.279 194.122 158.461 195.058 152.678C195.268 151.374 195.005 150.43 193.675 150.062C189.677 148.96 185.723 147.306 181.655 146.93C173.737 146.195 166.686 148.855 160.562 154.13C169.73 165.066 172.075 176.938 166.205 190.061C165.61 191.102 164.884 192.09 164.481 193.193C164.289 193.709 164.744 194.452 164.901 195.091ZM206.772 193.77C212.082 199.29 220.56 201.915 228.372 199.99C240.708 196.963 246.701 188.495 247.715 175.993C249.57 175.993 251.224 175.993 252.859 175.993C253.656 165.538 245.712 153.631 235.117 149.17C224.12 144.542 210.333 146.965 203.36 154.786C213.255 166.956 214.374 179.921 206.772 193.77ZM153.703 194.207C153.406 193.621 153.187 193.114 152.907 192.633C149.084 186.167 147.701 179.221 148.778 171.794C149.416 167.428 149.924 163.027 150.842 158.714C151.306 156.545 150.519 155.652 148.795 154.856C139.679 150.631 130.869 151.156 122.943 157.358C114.947 163.622 112.042 172.126 114.343 182.047C118.411 199.535 140.58 206.455 153.703 194.207ZM209.615 176.08C209.79 168.924 206.168 159.983 201.794 156.816C201.225 166.824 196.702 176.605 201.505 186.5C201.759 186.544 202.021 186.587 202.275 186.64C203.063 183.202 203.85 179.755 204.681 176.08C206.168 176.08 207.831 176.08 209.615 176.08ZM157.701 163.167C156.441 171.549 154.149 179.65 158.768 187.515C163.186 181.321 162.74 169.843 157.701 163.167Z" fill="white"/>
<path d="M223.061 226.848C225.038 230.12 227.007 233.383 229.351 237.268C230.218 231.992 230.979 227.399 231.784 222.526C233.612 222.526 235.353 222.456 237.076 222.588C237.426 222.614 237.724 223.384 238.048 223.812C236.936 230.453 235.86 237.102 234.679 243.733C234.496 244.774 233.734 246.594 233.358 246.568C231.224 246.41 228.66 247.976 227.016 245.247C225.493 242.709 223.831 240.26 222.23 237.766L222.248 237.793C221.224 236.043 220.209 234.293 219.186 232.544C219.011 232.596 218.844 232.649 218.669 232.701C218.424 234.425 218.188 236.157 217.943 237.88C217.891 238.344 217.847 238.816 217.795 239.28C217.515 240.898 217.243 242.517 216.963 244.135C216.334 247.005 214.304 247.67 210.218 246.27C211.469 238.431 212.72 230.575 213.954 222.806C218.774 222.194 219.719 222.343 221.198 223.83C221.311 224.014 221.425 224.206 221.548 224.39C222.046 225.195 222.554 226.026 223.061 226.848Z" fill="white"/>
<path d="M173.379 244.59C168.296 247.687 162.697 246.69 156.861 246.777C157.404 243.278 157.867 239.98 158.419 236.699C159.215 231.966 160.063 227.251 160.886 222.518C164.403 222.605 167.955 222.413 171.436 222.833C177.167 223.524 180.78 228.44 180.063 234.118C179.905 235.378 179.503 236.603 179.223 237.845L179.214 237.863C177.272 240.12 175.321 242.359 173.379 244.59ZM164.079 241.24C167.858 241.563 170.702 240.592 172.408 237.504C173.702 235.159 174.14 232.535 172.556 230.181C171.104 228.012 168.751 227.828 166.161 228.152C165.47 232.508 164.796 236.752 164.079 241.24Z" fill="white"/>
<path d="M182.057 232.535C182.083 232.255 182.118 231.984 182.145 231.704C182.626 228.773 183.116 225.843 183.597 222.903C183.746 222.763 183.903 222.632 184.052 222.492C187.096 222.474 190.141 222.448 193.185 222.431C193.474 222.439 193.763 222.439 194.051 222.448C196.641 222.956 199.056 223.743 200.359 226.333L200.342 226.298C200.98 231.337 199.423 235.169 194.191 237.032C196.099 240.208 197.936 243.27 199.983 246.699C197.113 246.699 194.655 246.699 192.197 246.699L192.065 246.594C191.637 245.763 191.208 244.941 190.779 244.11V244.118C189.896 242.176 189.003 240.225 188.12 238.283C187.927 238.344 187.744 238.406 187.551 238.467C187.359 240.033 187.158 241.59 186.965 243.156C186.781 244.276 186.598 245.404 186.405 246.524L186.414 246.516C184.305 246.568 182.206 246.621 180.097 246.673L180.045 246.577C180.719 241.888 181.392 237.207 182.057 232.535ZM188.435 233.078C188.645 233.349 188.855 233.611 189.065 233.883C190.499 233.104 192.109 232.518 193.29 231.45C193.78 231.013 193.771 229.08 193.29 228.668C192.328 227.864 190.876 227.654 189.45 227.129C189.047 229.5 188.741 231.293 188.435 233.078Z" fill="white"/>
<path d="M126.066 246.716C123.853 246.716 121.946 246.716 119.75 246.716C120.319 242.955 120.852 239.333 121.412 235.72C122.007 231.914 122.576 228.108 123.284 224.329C123.407 223.664 124.168 222.614 124.649 222.605C128.254 222.544 131.884 222.439 135.454 222.842C139.574 223.305 141.35 226.026 140.782 230.164C139.994 235.86 136.81 238.703 131.114 238.799C127.361 238.86 127.361 238.86 126.74 242.535C126.504 243.873 126.303 245.212 126.066 246.716ZM129.163 227.19C128.787 229.727 128.516 231.511 128.227 233.489C130.275 233.576 132.287 234.092 133.433 232.194C133.966 231.31 134.238 229.342 133.748 228.939C132.645 228.047 130.992 227.828 129.163 227.19Z" fill="white"/>
<path d="M156.012 231.948C155.671 233.961 155.391 235.597 155.085 237.399C152.687 237.399 150.457 237.399 148.059 237.399C147.885 238.737 147.727 239.892 147.543 241.283C149.958 241.283 152.18 241.283 154.875 241.283C154.568 243.234 154.297 244.914 154.017 246.698C149.442 246.698 144.98 246.698 140.229 246.698C141.498 238.624 142.732 230.732 143.991 222.684C148.558 222.684 153.011 222.684 157.762 222.684C157.508 224.442 157.263 226.131 156.992 228.029C155.365 228.029 153.939 228.029 152.504 228.029C149.206 228.02 149.206 228.02 149.267 231.957C151.436 231.948 153.615 231.948 156.012 231.948Z" fill="white"/>
<path d="M245.799 222.413C245.904 223.437 246.236 224.495 246.088 225.484C245.064 232.474 243.953 239.447 242.868 246.428C240.777 246.507 238.695 246.594 236.604 246.673L236.525 246.568C237.444 240.549 238.363 234.539 239.299 228.52C239.579 226.7 239.316 224.242 240.392 223.262C241.512 222.238 243.935 222.641 245.799 222.413Z" fill="white"/>
<path d="M204.191 230.102C204.506 228.387 205.013 226.69 205.083 224.967C205.171 222.832 206.151 222.263 208.084 222.482C209.178 222.605 210.297 222.473 211.408 222.447C211.417 223.392 211.557 224.363 211.417 225.29C210.569 230.837 209.667 236.384 208.766 241.921C207.883 247.372 207.725 247.477 201.855 246.41C202.625 240.985 203.412 235.544 204.191 230.102Z" fill="white"/>
</svg>
