<svg width="350" height="350" viewBox="0 0 350 350" fill="none" xmlns="http://www.w3.org/2000/svg">
<path d="M95 153.406C95.1059 153.17 95.2722 152.946 95.3115 152.701C96.5091 145.15 100.054 138.95 105.984 134.12C106.166 133.975 106.369 133.857 106.562 133.727C106.562 148.274 106.559 162.821 106.568 177.368C106.568 178.299 106.656 179.234 106.704 180.165C104.339 178.508 102.373 176.442 100.671 174.126C97.7975 170.221 96.0253 165.854 95.3055 161.058C95.2722 160.84 95.1059 160.643 95 160.438C95 158.091 95 155.75 95 153.406Z" fill="white"/>
<path d="M255 151.842C254.897 151.963 254.728 152.072 254.704 152.205C253.739 157.976 251.132 162.966 247.473 167.457C247.324 167.167 247.067 166.886 247.049 166.586C246.958 165.071 246.931 163.55 246.883 162.032C247.708 160.277 248.667 158.569 249.339 156.754C250.842 152.686 251.153 148.525 249.865 144.312C249.257 142.325 248.204 140.58 247.016 138.904C247.022 137.205 247.007 135.502 247.052 133.805C247.061 133.515 247.33 133.231 247.479 132.943C248.667 134.135 249.968 135.233 251.02 136.536C252.98 138.962 254.135 141.79 254.689 144.862C254.716 145.017 254.894 145.141 255 145.28C255 145.591 255 145.906 255 146.217C254.964 146.22 254.928 146.223 254.894 146.226C254.931 146.275 254.967 146.323 255 146.374C255 147.938 255 149.499 255 151.062C254.964 151.114 254.925 151.162 254.888 151.213C254.925 151.216 254.964 151.216 255 151.219C255 151.425 255 151.634 255 151.842Z" fill="white"/>
<path d="M249.336 200.73C249.436 200.57 249.536 200.413 249.635 200.253C249.666 200.228 249.684 200.195 249.696 200.159C250.283 199.209 250.848 198.247 251.468 197.322C251.595 197.134 251.919 196.986 252.155 196.977C253.101 196.95 254.051 196.983 255.001 196.995C255.001 205.536 255.001 214.077 255.001 222.618C254.208 222.618 253.416 222.618 252.539 222.618C252.539 220.522 252.539 218.429 252.539 216.182C250.806 216.182 249.151 216.182 247.5 216.182C247.5 215.64 247.515 215.096 247.497 214.555C247.479 214.05 247.706 213.868 248.196 213.877C249.151 213.895 250.107 213.898 251.063 213.874C251.541 213.862 252.018 213.771 252.496 213.714C252.496 209.244 252.496 204.774 252.496 200.301C252.445 200.289 252.394 200.277 252.345 200.268C251.522 201.526 250.703 202.784 249.88 204.045C249.711 203.673 249.445 203.313 249.396 202.926C249.309 202.2 249.348 201.462 249.336 200.73Z" fill="white"/>
<path d="M232.811 127.003C232.814 127.103 232.814 127.2 232.817 127.299C232.763 128.654 232.708 130.009 232.654 131.364C230.207 131.252 227.76 131.143 225.311 131.031C225.362 129.689 225.413 128.346 225.465 127.003C227.918 127.003 230.364 127.003 232.811 127.003Z" fill="white"/>
<path d="M135.021 219.088C138.792 221.238 142.545 220.954 146.374 218.897C146.374 219.741 146.408 220.485 146.35 221.226C146.335 221.414 146.072 221.659 145.869 221.74C145.071 222.049 144.248 222.294 143.441 222.587C143.265 222.651 143.123 222.811 142.966 222.929C141.351 222.929 139.736 222.929 138.121 222.929C137.93 222.814 137.752 222.666 137.549 222.587C136.645 222.239 135.732 221.91 134.821 221.574C134.888 220.745 134.954 219.917 135.021 219.088Z" fill="white"/>
<path d="M225.467 127.003C225.416 128.346 225.364 129.689 225.313 131.031C223.02 131.346 220.728 131.664 218.436 131.978C218.384 130.735 218.33 129.492 218.278 128.249C219.954 127.941 221.629 127.632 223.305 127.324C223.507 127.287 223.713 127.26 223.913 127.212C223.925 127.209 223.91 127.073 223.907 127C224.427 127.003 224.947 127.003 225.467 127.003Z" fill="white"/>
<path d="M178.908 222.927C178.899 222.842 178.893 222.76 178.884 222.675C178.893 221.88 178.899 221.082 178.908 220.286C181.448 220.695 183.91 220.477 186.251 219.346C186.306 220.18 186.36 221.018 186.414 221.853C185.686 222.104 184.957 222.346 184.234 222.615C184.104 222.663 184.016 222.821 183.907 222.927C182.241 222.927 180.574 222.927 178.908 222.927Z" fill="white"/>
<path d="M255 146.374C254.964 146.326 254.928 146.277 254.895 146.226C254.931 146.223 254.967 146.22 255 146.217C255 146.271 255 146.323 255 146.374Z" fill="white"/>
<path d="M255.001 151.216C254.964 151.213 254.925 151.213 254.889 151.21C254.925 151.158 254.964 151.11 255.001 151.059C255.001 151.113 255.001 151.164 255.001 151.216Z" fill="white"/>
<path d="M114.516 129.462C116.986 128.515 119.551 128.016 122.188 127.865C122.188 129.574 122.197 131.283 122.182 132.991C122.176 133.808 122.043 134.655 122.969 135.121C122.143 135.133 121.314 135.166 120.489 135.145C119.984 135.133 119.805 135.317 119.814 135.822C119.838 137.011 119.823 138.199 119.82 139.391C119.82 141.181 119.82 141.178 121.565 141.23C121.668 141.233 121.771 141.251 121.874 141.26C121.874 155.456 121.868 169.653 121.886 183.849C121.886 184.535 122.079 185.219 122.185 185.905C119.427 185.815 116.772 185.231 114.207 184.212C114.21 166.649 114.21 149.084 114.228 131.522C114.231 130.829 114.419 130.146 114.516 129.462Z" fill="white"/>
<path d="M114.516 129.462C114.416 130.145 114.232 130.832 114.232 131.515C114.214 149.078 114.214 166.643 114.211 184.206C111.474 183.295 108.975 181.94 106.704 180.165C106.656 179.234 106.568 178.299 106.568 177.368C106.559 162.82 106.562 148.273 106.562 133.726C108.96 131.83 111.613 130.412 114.516 129.462Z" fill="white"/>
<path d="M171.876 185.9C169.843 185.9 167.814 185.9 165.781 185.9C165.73 184.629 165.633 183.359 165.633 182.086C165.624 164.696 165.63 147.306 165.618 129.916C165.618 129.09 165.612 128.307 166.408 127.799C168.385 127.799 170.366 127.799 172.344 127.799C171.882 128.18 171.7 128.627 171.703 129.263C171.724 147.705 171.718 166.145 171.727 184.587C171.724 185.026 171.821 185.464 171.876 185.9Z" fill="white"/>
<path d="M166.404 127.802C165.609 128.31 165.615 129.093 165.615 129.919C165.627 147.309 165.621 164.699 165.63 182.089C165.63 183.359 165.727 184.629 165.778 185.902C163.852 185.902 161.925 185.902 159.999 185.902C159.947 185.467 159.857 185.034 159.851 184.599C159.832 183.175 159.863 181.75 159.829 180.326C159.82 179.993 159.633 179.66 159.527 179.331C159.53 164.741 159.533 150.152 159.533 135.562C159.533 135.432 159.518 135.302 159.509 135.172C159.515 133.264 159.5 131.352 159.545 129.444C159.557 128.894 159.739 128.349 159.844 127.802C162.031 127.802 164.218 127.802 166.404 127.802Z" fill="white"/>
<path d="M171.876 185.899C171.824 185.464 171.727 185.025 171.727 184.59C171.718 166.147 171.724 147.708 171.703 129.266C171.703 128.63 171.885 128.183 172.344 127.802C174.377 127.802 176.406 127.802 178.438 127.802C177.598 128.186 177.646 128.921 177.649 129.68C177.667 134.204 177.658 138.732 177.658 143.256C177.658 148.797 177.652 154.334 177.673 159.875C177.673 160.217 177.879 160.558 177.988 160.903C177.933 162.984 177.876 165.068 177.821 167.148C177.719 167.36 177.531 167.575 177.528 167.787C177.507 173.27 177.492 178.756 177.522 184.239C177.525 184.793 177.812 185.343 177.97 185.893C175.937 185.899 173.905 185.899 171.876 185.899Z" fill="white"/>
<path d="M144.53 185.899C142.029 185.899 139.53 185.899 137.029 185.899C137.029 171.016 137.029 156.137 137.032 141.254C139.479 141.254 141.929 141.254 144.375 141.254C144.375 155.674 144.372 170.091 144.381 184.511C144.381 184.974 144.478 185.437 144.53 185.899Z" fill="white"/>
<path d="M122.188 185.899C122.086 185.213 121.889 184.529 121.889 183.843C121.871 169.646 121.877 155.45 121.877 141.254C124.221 141.254 126.565 141.254 128.909 141.254C128.909 155.338 128.912 169.42 128.902 183.504C128.902 184.342 128.896 185.164 129.377 185.902C126.979 185.899 124.584 185.899 122.188 185.899Z" fill="white"/>
<path d="M154.373 185.902C152.656 185.902 150.935 185.902 149.217 185.902C149.165 185.204 149.069 184.508 149.069 183.81C149.06 165.8 149.06 147.793 149.075 129.783C149.075 129.123 149.268 128.464 149.374 127.805C150.989 127.805 152.604 127.805 154.219 127.805C154.062 128.388 153.805 128.966 153.772 129.556C153.702 130.799 153.702 132.051 153.772 133.294C153.808 133.911 154.062 134.513 154.219 135.124C153.502 135.081 153.557 135.565 153.557 136.052C153.563 150.194 153.56 164.336 153.56 178.478C153.56 178.608 153.511 178.771 153.572 178.862C153.705 179.058 153.896 179.219 154.062 179.394C154.062 180.991 154.035 182.591 154.074 184.188C154.092 184.759 154.271 185.328 154.373 185.902Z" fill="white"/>
<path d="M149.375 127.802C149.272 128.461 149.075 129.12 149.075 129.78C149.06 147.79 149.06 165.797 149.069 183.807C149.069 184.505 149.166 185.201 149.217 185.899C147.654 185.899 146.093 185.899 144.53 185.899C144.478 185.437 144.382 184.974 144.382 184.511C144.372 170.094 144.375 155.674 144.375 141.254C144.971 141.242 145.57 141.2 146.166 141.23C146.701 141.257 146.901 141.076 146.886 140.522C146.852 139.355 146.877 138.184 146.877 137.017C146.877 135.224 146.877 135.224 145.159 135.118C144.672 134.389 144.663 133.572 144.684 132.737C144.705 131.86 144.63 130.974 144.708 130.103C144.778 129.329 145.002 128.567 145.159 127.802C146.562 127.802 147.968 127.802 149.375 127.802Z" fill="white"/>
<path d="M230.346 180.848C227.584 182.249 224.714 183.371 221.717 184.163C221.666 182.932 221.614 181.704 221.563 180.473C222.555 180.135 223.55 179.799 224.669 179.418C223.193 178.193 221.826 177.062 220.459 175.931C220.462 175.311 220.471 174.691 220.471 174.071C220.468 162.956 220.465 151.842 220.462 140.727C222.029 140.168 223.595 139.608 225.159 139.049C225.159 151.095 225.159 163.138 225.159 175.184C225.159 175.417 225.101 175.677 225.183 175.879C225.262 176.076 225.488 176.212 225.649 176.375C225.361 177.328 225.074 178.278 224.711 179.481C226.677 178.598 228.416 177.818 230.158 177.038C230.219 178.305 230.282 179.575 230.346 180.848Z" fill="white"/>
<path d="M177.982 160.906C177.873 160.564 177.67 160.223 177.667 159.878C177.646 154.337 177.652 148.8 177.652 143.259C177.652 138.735 177.661 134.207 177.643 129.683C177.64 128.921 177.592 128.189 178.432 127.805C180.256 127.805 182.08 127.805 183.9 127.805C183.798 128.201 183.604 128.594 183.601 128.99C183.58 134.262 183.58 139.533 183.607 144.805C183.61 145.131 183.906 145.455 184.067 145.778C182.893 147.917 181.632 150.009 180.574 152.202C179.303 154.833 178.52 157.64 178.085 160.537C178.076 160.661 178.021 160.782 177.982 160.906Z" fill="white"/>
<path d="M129.375 185.899C128.894 185.164 128.9 184.341 128.9 183.5C128.909 169.416 128.906 155.335 128.906 141.25C130.322 141.159 130.322 141.159 130.322 142.532C130.322 147.659 130.322 152.782 130.322 157.908C130.322 164.749 130.331 171.593 130.31 178.434C130.307 179.124 130.458 179.402 131.208 179.369C132.533 179.309 133.86 179.351 135.188 179.351C136.301 179.351 136.304 179.348 136.304 178.262C136.304 171.993 136.304 165.723 136.304 159.454C136.304 153.653 136.307 147.852 136.301 142.049C136.301 141.531 136.298 141.066 137.033 141.25C137.033 156.133 137.033 171.013 137.03 185.896C134.48 185.899 131.928 185.899 129.375 185.899Z" fill="white"/>
<path d="M188.446 179.14C184.932 175.946 182.915 171.963 182.334 167.275C181.593 161.296 183.269 155.852 186.178 150.708C186.574 150.009 187.049 149.359 187.485 148.685C187.488 150.575 187.466 152.462 187.518 154.352C187.53 154.77 187.796 155.178 187.944 155.589C187.875 155.813 187.817 156.037 187.739 156.255C186.568 159.457 186.096 162.742 186.541 166.141C186.852 168.527 187.739 170.699 188.921 172.77C188.383 172.81 188.437 173.212 188.437 173.569C188.44 175.429 188.443 177.286 188.446 179.14Z" fill="white"/>
<path d="M118.596 222.599C117.035 222.608 115.478 222.611 113.917 222.633C113.485 222.639 113.285 222.481 113.315 222.046C113.328 221.892 113.315 221.734 113.315 221.577C113.315 213.726 113.315 205.875 113.315 198.026C113.315 196.971 113.319 196.968 114.383 196.971C115.838 196.977 117.292 196.992 118.75 197.001C118.647 197.754 118.545 198.507 118.442 199.257C117.716 199.276 116.987 199.309 116.261 199.303C115.826 199.3 115.659 199.469 115.662 199.902C115.671 202.578 115.674 205.258 115.656 207.934C115.653 208.476 115.901 208.578 116.373 208.575C118.687 208.56 121 208.597 123.314 208.548C124.049 208.533 124.248 208.772 124.221 209.477C124.158 211.146 124.409 210.904 122.751 210.916C120.646 210.928 118.539 210.931 116.434 210.907C115.868 210.901 115.647 211.07 115.653 211.66C115.674 214.313 115.671 216.965 115.656 219.614C115.653 220.119 115.829 220.307 116.337 220.292C117.035 220.268 117.74 220.31 118.439 220.322C118.493 221.081 118.545 221.84 118.596 222.599Z" fill="white"/>
<path d="M102.153 210.977C102.153 207.463 102.153 203.948 102.153 200.434C102.153 199.306 102.153 199.306 100.988 199.306C99.3732 199.306 97.7582 199.285 96.1462 199.315C95.5353 199.327 95.3206 199.122 95.3357 198.508C95.378 196.693 95.1845 196.989 96.8025 196.983C101.306 196.968 105.812 196.989 110.315 196.956C111.044 196.95 111.259 197.177 111.232 197.888C111.171 199.506 111.401 199.3 109.813 199.312C108.356 199.321 106.895 199.351 105.44 199.297C104.687 199.27 104.466 199.512 104.469 200.265C104.496 207.293 104.487 214.322 104.475 221.351C104.475 221.765 104.415 222.491 104.248 222.533C103.665 222.681 103.015 222.633 102.401 222.554C102.286 222.539 102.165 222.037 102.162 221.759C102.147 218.323 102.15 214.888 102.15 211.449C102.153 211.289 102.153 211.134 102.153 210.977Z" fill="white"/>
<path d="M184.076 145.775C183.915 145.452 183.616 145.128 183.616 144.802C183.586 139.53 183.589 134.259 183.61 128.987C183.613 128.591 183.804 128.198 183.909 127.802C185.887 127.802 187.868 127.802 189.846 127.802C189.743 128.174 189.553 128.546 189.55 128.921C189.526 131.833 189.538 134.746 189.532 137.655C189.532 138.175 189.737 138.441 190.276 138.396C188.068 140.74 185.839 143.063 184.076 145.775Z" fill="white"/>
<path d="M177.968 185.899C177.81 185.349 177.523 184.795 177.52 184.245C177.49 178.762 177.505 173.276 177.526 167.792C177.526 167.581 177.717 167.366 177.819 167.154C178.067 170.835 179.283 174.213 181.104 177.383C182.879 180.467 185.283 182.999 188.129 185.119C188.417 185.334 188.707 185.542 189.197 185.902C185.299 185.899 181.633 185.899 177.968 185.899Z" fill="white"/>
<path d="M226.094 199.267C225.449 199.267 224.805 199.267 224.11 199.267C224.11 202.394 224.11 205.421 224.11 208.524C224.612 208.551 225.12 208.575 225.625 208.603C225.622 209.422 225.464 210.284 226.248 210.886C225.552 210.886 224.857 210.886 224.11 210.886C224.11 214.049 224.11 217.104 224.11 220.31C224.82 220.31 225.534 220.31 226.251 220.31C226.302 221.072 226.354 221.837 226.405 222.599C224.875 222.599 223.344 222.599 221.763 222.599C221.763 214.074 221.763 205.575 221.763 196.992C223.36 196.992 224.959 196.992 226.559 196.992C226.048 197.679 226.057 198.471 226.094 199.267Z" fill="white"/>
<path d="M205.782 222.602C204.016 222.602 202.253 222.602 200.42 222.602C200.42 214.08 200.42 205.575 200.42 196.998C202.114 196.998 203.792 196.998 205.471 196.998C205.368 197.718 205.262 198.438 205.159 199.157C204.364 199.157 203.568 199.157 202.758 199.157C202.758 206.265 202.758 213.23 202.758 220.282C203.868 220.282 204.905 220.282 205.942 220.282C205.806 220.428 205.685 220.591 205.528 220.712C205.008 221.114 205.071 221.583 205.356 222.07C205.465 222.266 205.637 222.427 205.782 222.602Z" fill="white"/>
<path d="M161.073 213.868C161.929 215.259 162.782 216.648 163.638 218.039C163.707 218.03 163.774 218.024 163.843 218.015C163.843 217.727 163.843 217.44 163.843 217.15C163.843 210.774 163.843 204.399 163.843 198.024C163.843 196.968 163.846 196.968 164.902 196.965C165.005 196.965 165.114 196.98 165.213 196.962C165.957 196.841 166.181 197.131 166.178 197.897C166.151 205.832 166.151 213.771 166.178 221.707C166.181 222.475 165.93 222.596 165.213 222.669C163.995 222.793 163.32 222.336 162.794 221.272C162.153 219.968 161.345 218.749 160.61 217.491C160.517 217.047 160.387 216.605 160.335 216.155C160.235 215.296 160.184 214.428 160.111 213.557C160.565 213.702 160.819 213.783 161.073 213.868Z" fill="white"/>
<path d="M152.305 203.613C151.857 202.918 151.413 202.222 150.965 201.526C150.917 201.532 150.871 201.535 150.823 201.541C150.823 208.531 150.823 215.52 150.823 222.57C149.997 222.57 149.284 222.57 148.491 222.57C148.476 222.282 148.449 222.007 148.449 221.732C148.446 213.769 148.458 205.806 148.428 197.846C148.425 197.09 148.703 197.008 149.362 196.938C150.584 196.808 151.38 197.189 151.854 198.342C152.108 198.962 152.505 199.521 152.837 200.108C152.725 200.392 152.544 200.667 152.511 200.958C152.414 201.841 152.372 202.727 152.305 203.613Z" fill="white"/>
<path d="M186.413 221.853C186.359 221.018 186.305 220.18 186.25 219.346C186.489 219.191 186.725 219.034 186.967 218.88C191.023 216.294 192.898 211.661 191.703 207C190.856 203.698 188.718 201.432 185.748 199.884C185.815 199.113 185.884 198.342 185.951 197.57C190.472 199.397 193.315 202.678 194.177 207.478C194.93 211.682 193.944 215.529 190.914 218.641C189.631 219.96 188.255 221.266 186.413 221.853Z" fill="white"/>
<path d="M122.97 135.118C122.047 134.652 122.177 133.805 122.183 132.989C122.195 131.28 122.186 129.571 122.189 127.862C125.365 127.841 128.544 127.82 131.719 127.799C130.779 128.222 130.724 129.015 130.773 129.904C130.824 130.859 130.812 131.824 130.776 132.78C130.739 133.714 130.688 134.628 131.722 135.121C128.804 135.118 125.885 135.118 122.97 135.118Z" fill="white"/>
<path d="M131.719 135.121C130.688 134.631 130.736 133.717 130.772 132.78C130.809 131.821 130.821 130.859 130.769 129.904C130.724 129.018 130.778 128.222 131.716 127.799C134.529 127.799 137.341 127.799 140.154 127.799C139.368 128.262 139.101 128.921 139.195 129.84C139.289 130.763 139.21 131.706 139.216 132.638C139.222 133.542 139.008 134.519 139.997 135.118C137.241 135.121 134.48 135.121 131.719 135.121Z" fill="white"/>
<path d="M135.021 219.089C134.955 219.918 134.891 220.743 134.825 221.572C130.724 219.47 128.189 216.186 127.551 211.601C126.786 206.093 129.384 201.012 134.226 198.278C134.471 198.139 134.743 198.046 135.003 197.931C135.009 198.784 135.015 199.633 135.018 200.486C133.975 201.454 132.774 202.301 131.912 203.411C128.283 208.092 129.33 214.858 134.141 218.448C134.432 218.663 134.725 218.877 135.021 219.089Z" fill="white"/>
<path d="M195.66 196.871C196.437 196.871 197.154 196.871 197.916 196.871C197.916 205.46 197.916 214.004 197.916 222.59C197.154 222.59 196.437 222.59 195.66 222.59C195.66 214.031 195.66 205.487 195.66 196.871Z" fill="white"/>
<path d="M213.303 198.786C217.625 201.448 220.069 205.981 219.458 211.325C218.998 215.335 216.963 218.387 213.609 220.589C213.5 220.274 213.367 219.966 213.288 219.642C213.17 219.158 213.095 218.665 213.001 218.175C213.116 218.069 213.228 217.96 213.346 217.861C216.425 215.23 217.649 211.906 217.057 207.905C216.663 205.255 215.245 203.208 213.288 201.475C213.288 200.58 213.294 199.684 213.303 198.786Z" fill="white"/>
<path d="M249.335 200.73C249.347 201.462 249.308 202.2 249.396 202.923C249.441 203.31 249.71 203.67 249.88 204.042C249.741 204.29 249.614 204.544 249.462 204.783C247.735 207.511 246.005 210.236 244.276 212.961C244.13 213.191 244 213.427 243.831 213.714C246.801 213.714 249.647 213.714 252.496 213.714C252.018 213.768 251.54 213.859 251.062 213.874C250.106 213.901 249.151 213.895 248.195 213.877C247.708 213.868 247.478 214.05 247.496 214.555C247.518 215.096 247.5 215.64 247.5 216.182C246.06 216.191 244.614 216.26 243.178 216.191C242.358 216.152 241.889 216.421 241.632 217.162C241.593 217.277 241.496 217.37 241.427 217.473C241.315 217.159 241.154 216.853 241.1 216.53C240.976 215.755 240.9 214.972 240.807 214.192C243.65 209.701 246.492 205.216 249.335 200.73Z" fill="white"/>
<path d="M190.272 138.399C189.734 138.444 189.525 138.178 189.528 137.658C189.537 134.746 189.522 131.833 189.546 128.924C189.55 128.549 189.74 128.177 189.843 127.805C191.561 127.805 193.282 127.805 194.999 127.805C194.897 128.331 194.721 128.851 194.7 129.38C194.655 130.521 194.655 131.667 194.7 132.81C194.721 133.312 194.894 133.808 194.999 134.307C193.657 135.435 192.311 136.557 190.974 137.691C190.72 137.903 190.505 138.16 190.272 138.399Z" fill="white"/>
<path d="M188.446 179.14C188.443 177.283 188.44 175.426 188.44 173.569C188.44 173.209 188.386 172.81 188.924 172.771C189.396 173.384 189.852 174.017 190.348 174.612C192.099 176.723 194.319 178.232 196.721 179.503C196.715 181.03 196.709 182.56 196.703 184.088C193.606 183.011 190.823 181.414 188.446 179.14Z" fill="white"/>
<path d="M154.22 135.118C154.062 134.507 153.808 133.905 153.772 133.288C153.702 132.045 153.702 130.793 153.772 129.55C153.805 128.96 154.062 128.383 154.22 127.799C156.095 127.799 157.97 127.799 159.845 127.799C159.739 128.346 159.557 128.891 159.545 129.441C159.503 131.349 159.518 133.258 159.509 135.169C157.746 135.154 155.983 135.136 154.22 135.118Z" fill="white"/>
<path d="M187.948 155.592C187.799 155.181 187.533 154.77 187.521 154.355C187.47 152.468 187.494 150.578 187.488 148.688C189.061 146.162 190.972 143.918 193.131 141.877C193.025 143.235 192.889 144.593 192.838 145.951C192.826 146.241 193.119 146.544 193.273 146.84C192.209 148.298 191.141 149.752 190.077 151.21C190.131 151.274 190.183 151.334 190.237 151.398C191.305 151.038 192.372 150.681 193.44 150.321C193.437 151.612 193.437 152.907 193.434 154.198C192.306 153.324 191.175 152.447 189.919 151.476C189.224 152.922 188.586 154.256 187.948 155.592Z" fill="white"/>
<path d="M230.346 180.849C230.282 179.579 230.219 178.306 230.158 177.035C230.808 176.666 231.495 176.346 232.109 175.919C234.589 174.195 237.045 172.438 239.509 170.696C239.519 171.737 239.491 172.78 239.555 173.817C239.576 174.153 239.833 174.477 239.981 174.806C237.03 177.235 233.79 179.207 230.346 180.849Z" fill="white"/>
<path d="M139.999 135.121C139.01 134.525 139.225 133.548 139.219 132.641C139.213 131.706 139.291 130.766 139.198 129.843C139.104 128.924 139.37 128.264 140.156 127.802C141.823 127.802 143.489 127.805 145.156 127.805C144.998 128.573 144.775 129.332 144.705 130.106C144.626 130.977 144.705 131.863 144.681 132.741C144.66 133.572 144.669 134.392 145.156 135.121C143.438 135.118 141.72 135.118 139.999 135.121Z" fill="white"/>
<path d="M239.976 174.802C239.828 174.472 239.57 174.152 239.549 173.813C239.486 172.776 239.513 171.732 239.504 170.692C242.332 168.118 244.836 165.272 246.88 162.033C246.929 163.551 246.959 165.073 247.047 166.588C247.065 166.884 247.322 167.169 247.47 167.459C245.302 170.238 242.776 172.661 239.976 174.802Z" fill="white"/>
<path d="M200.129 136.146C203.075 134.102 206.184 132.366 209.532 131.065C209.583 132.318 209.637 133.573 209.689 134.825C206.565 136.34 203.486 137.934 200.673 139.99C200.501 139.715 200.201 139.449 200.18 139.165C200.111 138.164 200.138 137.153 200.129 136.146Z" fill="white"/>
<path d="M171.619 218.608C168.985 215.874 167.959 212.565 168.201 208.842C168.401 205.781 169.52 203.099 171.719 200.909C171.77 201.39 171.815 201.874 171.876 202.355C171.945 202.908 172.03 203.459 172.109 204.009C169.889 207.959 169.94 211.869 172.299 215.744C172.157 216.058 171.955 216.364 171.888 216.693C171.758 217.322 171.707 217.97 171.619 218.608Z" fill="white"/>
<path d="M154.374 185.902C154.271 185.33 154.089 184.759 154.074 184.184C154.032 182.587 154.059 180.99 154.062 179.391C155.883 179.369 157.703 179.348 159.527 179.33C159.633 179.663 159.821 179.992 159.83 180.325C159.863 181.75 159.833 183.174 159.851 184.598C159.857 185.034 159.948 185.466 159.999 185.902C158.124 185.902 156.249 185.902 154.374 185.902Z" fill="white"/>
<path d="M196.696 184.091C196.702 182.563 196.708 181.033 196.714 179.506C197.322 179.766 197.912 180.111 198.544 180.274C200.897 180.885 203.262 181.438 205.624 182.01C205.518 182.642 205.352 183.274 205.328 183.912C205.301 184.581 205.409 185.255 205.458 185.93C202.44 185.784 199.521 185.164 196.696 184.091Z" fill="white"/>
<path d="M152.306 203.613C152.369 202.727 152.412 201.84 152.511 200.957C152.545 200.664 152.726 200.389 152.838 200.107C154.888 203.507 156.942 206.9 158.986 210.302C159.694 211.482 160.378 212.677 161.073 213.865C160.819 213.784 160.565 213.702 160.111 213.554C160.184 214.425 160.239 215.29 160.335 216.152C160.387 216.602 160.517 217.044 160.611 217.488C158.865 214.603 157.114 211.724 155.381 208.833C154.344 207.103 153.331 205.355 152.306 203.613Z" fill="white"/>
<path d="M200.129 136.146C200.138 137.153 200.111 138.163 200.18 139.167C200.201 139.451 200.501 139.717 200.673 139.992C197.988 142.04 195.496 144.296 193.273 146.84C193.118 146.543 192.828 146.241 192.837 145.95C192.889 144.589 193.025 143.235 193.13 141.877C195.251 139.705 197.591 137.806 200.129 136.146Z" fill="white"/>
<path d="M209.689 134.827C209.638 133.575 209.584 132.32 209.532 131.068C212.342 129.8 215.251 128.842 218.282 128.252C218.333 129.495 218.388 130.738 218.439 131.981C215.52 132.928 212.605 133.877 209.689 134.827Z" fill="white"/>
<path d="M195 134.304C194.898 133.805 194.722 133.309 194.701 132.807C194.656 131.667 194.656 130.521 194.701 129.377C194.722 128.848 194.895 128.325 195 127.802C198.43 127.802 201.863 127.802 205.292 127.802C201.684 129.692 198.261 131.87 195 134.304Z" fill="white"/>
<path d="M205.459 185.929C205.41 185.258 205.301 184.583 205.329 183.912C205.353 183.274 205.522 182.645 205.625 182.01C208.28 182.016 210.939 182.022 213.594 182.031C213.648 183.274 213.7 184.517 213.754 185.757C211.894 185.869 210.034 186.017 208.171 186.078C207.27 186.111 206.363 185.984 205.459 185.929Z" fill="white"/>
<path d="M213.754 185.759C213.7 184.516 213.648 183.273 213.594 182.033C213.751 182.024 213.905 182.015 214.063 182.006C214.105 182.066 214.15 182.127 214.193 182.187C214.25 182.115 214.307 182.042 214.365 181.97C216.763 181.471 219.165 180.972 221.563 180.473C221.614 181.704 221.666 182.931 221.717 184.162C219.062 184.692 216.409 185.227 213.754 185.759Z" fill="white"/>
<path d="M135.015 200.485C135.009 199.633 135.003 198.783 135 197.93C138.632 196.306 142.28 196.263 145.927 197.872C146.121 197.957 146.344 198.226 146.359 198.426C146.411 199.118 146.381 199.82 146.381 200.652C146.069 200.522 145.86 200.455 145.67 200.352C142.836 198.783 139.86 198.737 136.83 199.596C136.192 199.775 135.62 200.183 135.015 200.485Z" fill="white"/>
<path d="M171.618 218.607C171.703 217.969 171.757 217.322 171.887 216.693C171.957 216.363 172.156 216.058 172.299 215.743C173.98 218.014 176.137 219.596 178.907 220.289C178.898 221.084 178.892 221.883 178.883 222.678C175.952 222.227 173.575 220.794 171.618 218.607Z" fill="white"/>
<path d="M226.093 199.266C226.057 198.471 226.045 197.679 226.559 196.995C229.269 196.998 231.979 196.998 234.688 197.001C234.728 197.05 234.767 197.098 234.806 197.143C234.797 197.824 234.791 198.504 234.782 199.185C234.743 199.2 234.713 199.224 234.694 199.26C231.827 199.263 228.96 199.266 226.093 199.266Z" fill="white"/>
<path d="M212.998 218.178C213.092 218.668 213.171 219.161 213.286 219.645C213.364 219.968 213.498 220.277 213.606 220.591C211.25 222.245 208.607 222.778 205.779 222.602C205.634 222.427 205.465 222.267 205.35 222.073C205.063 221.586 205.002 221.114 205.522 220.715C205.68 220.594 205.801 220.431 205.937 220.286C208.51 220.313 210.9 219.726 212.998 218.178Z" fill="white"/>
<path d="M226.404 222.603C226.353 221.841 226.301 221.076 226.25 220.313C229.063 220.317 231.878 220.317 234.691 220.32C234.715 220.365 234.748 220.398 234.794 220.422C234.797 221.103 234.803 221.783 234.806 222.464C234.767 222.509 234.727 222.555 234.688 222.6C231.927 222.6 229.165 222.603 226.404 222.603Z" fill="white"/>
<path d="M213.304 198.787C213.298 199.682 213.292 200.58 213.286 201.475C211.786 200.353 210.158 199.512 208.268 199.319C207.237 199.213 206.197 199.207 205.159 199.156C205.262 198.436 205.368 197.716 205.471 196.996C208.259 196.815 210.911 197.22 213.304 198.787Z" fill="white"/>
<path d="M240.81 214.188C240.903 214.969 240.976 215.752 241.103 216.526C241.154 216.85 241.318 217.155 241.43 217.47C240.416 219.1 239.409 220.733 238.384 222.354C238.302 222.484 238.106 222.614 237.961 222.62C237.168 222.648 236.373 222.632 235.411 222.632C237.265 219.726 239.037 216.956 240.81 214.188Z" fill="white"/>
<path d="M172.109 204.009C172.03 203.459 171.946 202.905 171.876 202.355C171.816 201.874 171.77 201.39 171.719 200.909C173.57 198.831 175.838 197.492 178.593 197.011C178.648 197.743 178.699 198.472 178.753 199.203C175.974 200.023 173.697 201.538 172.109 204.009Z" fill="white"/>
<path d="M118.596 222.599C118.544 221.84 118.493 221.081 118.441 220.322C120.906 220.309 123.374 220.306 125.839 220.282C126.274 220.279 126.414 220.443 126.435 220.875C126.522 222.629 126.538 222.632 124.823 222.626C122.748 222.62 120.673 222.608 118.596 222.599Z" fill="white"/>
<path d="M118.441 199.257C118.544 198.504 118.647 197.751 118.75 197.001C121.109 196.992 123.471 196.986 125.83 196.968C126.256 196.965 126.435 197.113 126.429 197.555C126.398 199.708 126.662 199.281 124.817 199.297C122.694 199.315 120.568 199.272 118.441 199.257Z" fill="white"/>
<path d="M178.754 199.2C178.7 198.468 178.648 197.74 178.594 197.008C181.101 196.463 183.557 196.617 185.949 197.573C185.882 198.344 185.813 199.116 185.746 199.887C183.49 198.913 181.146 198.807 178.754 199.2Z" fill="white"/>
<path d="M226.247 210.89C225.464 210.285 225.621 209.426 225.624 208.606C227.905 208.606 230.185 208.606 232.52 208.606C232.52 209.369 232.52 210.085 232.52 210.89C230.436 210.89 228.343 210.89 226.247 210.89Z" fill="white"/>
<path d="M234.698 199.264C234.716 199.228 234.747 199.201 234.786 199.188C234.756 199.213 234.725 199.237 234.698 199.264Z" fill="white"/>
<path d="M249.693 200.155C249.684 200.192 249.662 200.225 249.632 200.249C249.62 200.201 249.641 200.167 249.693 200.155Z" fill="white"/>
<path d="M234.794 220.422C234.749 220.398 234.716 220.365 234.691 220.319C234.728 220.356 234.761 220.389 234.794 220.422Z" fill="white"/>
<path d="M247.016 138.907C245.277 136.923 243.239 135.308 240.94 134.02C240.94 133.424 240.916 132.828 240.94 132.232C240.98 131.255 241.049 130.282 241.107 129.305C243.436 130.158 245.58 131.334 247.479 132.946C247.331 133.233 247.059 133.518 247.053 133.808C247.004 135.508 247.019 137.207 247.016 138.907Z" fill="white"/>
<path d="M241.106 129.304C241.048 130.281 240.979 131.255 240.939 132.231C240.915 132.827 240.936 133.423 240.939 134.019C240.698 133.928 240.456 133.84 240.12 133.716C240.017 134.001 239.914 134.282 239.817 134.566C236.838 143.391 233.856 152.216 230.874 161.041C230.799 161.262 230.696 161.471 230.608 161.686C230.457 161.214 230.173 160.742 230.176 160.27C230.2 152.579 230.26 144.891 230.312 137.2C233.524 136.039 236.736 134.878 240.084 133.665C239.678 133.477 239.415 133.314 239.128 133.232C236.972 132.6 234.812 131.986 232.653 131.366C232.707 130.012 232.762 128.657 232.816 127.302C235.662 127.628 238.466 128.127 241.106 129.304Z" fill="white"/>
<path d="M225.155 139.045C226.873 138.428 228.594 137.814 230.312 137.197C230.26 144.888 230.2 152.576 230.176 160.267C230.176 160.739 230.457 161.211 230.608 161.682C229.64 164.589 228.685 167.501 227.705 170.405C227.034 172.398 226.332 174.382 225.645 176.372C225.485 176.208 225.258 176.072 225.18 175.876C225.098 175.673 225.155 175.416 225.155 175.18C225.155 163.137 225.155 151.091 225.155 139.045Z" fill="white"/>
<path d="M220.455 175.928C219.155 174.881 217.854 173.838 216.554 172.792C216.551 162.566 216.548 152.341 216.545 142.116C217.848 141.653 219.152 141.19 220.458 140.728C220.461 151.842 220.464 162.956 220.467 174.071C220.467 174.688 220.458 175.308 220.455 175.928Z" fill="white"/>
<path d="M200.29 159.718C198.003 157.879 195.72 156.04 193.434 154.199C193.437 152.907 193.437 151.613 193.44 150.321C195.678 149.529 197.919 148.74 200.157 147.947C200.199 151.87 200.244 155.795 200.29 159.718Z" fill="white"/>
<path d="M214.062 182.006C214.162 181.994 214.262 181.982 214.365 181.97C214.307 182.042 214.25 182.115 214.193 182.187C214.15 182.124 214.105 182.063 214.062 182.006Z" fill="white"/>
<path d="M216.545 142.115C216.548 152.341 216.551 162.566 216.554 172.791C214.679 171.282 212.804 169.773 210.929 168.267C210.932 161.359 210.926 154.452 210.944 147.541C210.947 146.377 211.041 145.212 211.095 144.048C212.91 143.404 214.727 142.759 216.545 142.115Z" fill="white"/>
<path d="M211.093 144.048C211.041 145.212 210.945 146.377 210.942 147.541C210.923 154.449 210.929 161.356 210.926 168.267C209.254 166.924 207.585 165.584 205.912 164.241C205.918 158.126 205.924 152.011 205.93 145.896C207.654 145.279 209.375 144.665 211.093 144.048Z" fill="white"/>
<path d="M205.934 145.896C205.928 152.012 205.922 158.127 205.916 164.242C204.04 162.733 202.165 161.227 200.29 159.718C200.245 155.795 200.203 151.87 200.157 147.947C202.084 147.263 204.007 146.58 205.934 145.896Z" fill="white"/>
</svg>
