<svg width="350" height="350" viewBox="0 0 350 350" fill="none" xmlns="http://www.w3.org/2000/svg">
<path d="M38.3413 182.26C23.9073 189.283 11.2649 186.995 4.08151 176.06C-2.72334 165.706 -0.872824 152.542 8.53958 144.719C14.1332 140.076 20.5764 138.142 27.8018 139.353C34.8337 140.531 40.3012 144.316 44.4732 150.271C46.8957 146.831 48.9818 143.601 51.5389 140.69C52.7333 139.328 53.5156 139.319 54.7604 140.64C57.1409 143.18 59.6559 145.603 62.1962 147.983C63.3317 149.043 63.4663 149.716 62.356 151.02C50.0164 165.597 49.9659 184.893 62.2046 199.444C63.256 200.698 63.5588 201.48 62.1709 202.733C59.5886 205.072 57.1072 207.528 54.7773 210.118C53.3305 211.725 52.5398 211.178 51.3875 209.874C44.8938 202.514 40.7218 194.069 39.0311 184.43C38.8965 183.664 38.8965 182.874 38.3413 182.26Z" fill="white"/>
<path d="M154.629 169.567C154.629 172.461 154.621 175.354 154.638 178.239C154.646 179.299 154.511 180.039 153.124 180.157C147.808 180.62 142.491 181.124 137.184 180.132C132.759 179.308 130.404 176.65 130.236 172.486C130.085 168.566 132.23 165.975 136.688 164.806C139.135 164.167 141.659 164.1 144.182 163.99C145.309 163.94 147.202 164.907 147.336 162.737C147.463 160.794 146.756 159.086 144.468 158.691C141.272 158.144 138.084 158.523 134.896 158.784C133.794 158.876 132.179 159.995 132.028 157.791C131.91 156.1 131.279 154.048 134.257 153.754C139.001 153.291 143.736 152.753 148.43 153.88C152.737 154.914 154.587 157.404 154.629 161.744C154.646 164.36 154.629 166.968 154.629 169.567Z" fill="white"/>
<path d="M244.935 169.028C242.411 169.028 239.879 169.104 237.356 169.003C235.573 168.936 235.337 169.819 235.834 171.14C236.717 173.486 238.466 174.841 240.922 175.429C243.934 176.153 246.903 175.656 249.897 175.354C250.755 175.27 252.076 174.546 252 176.245C251.941 177.515 252.968 179.501 250.814 179.887C245.338 180.863 239.812 181.486 234.488 179.122C230.955 177.549 228.911 174.807 228.07 171.072C227.414 168.179 227.573 165.31 228.213 162.467C229.306 157.614 233.125 154.157 238.063 153.459C240.384 153.131 242.731 153.156 245.036 153.518C250.924 154.443 255.844 162.207 254.255 167.884C253.935 169.028 253.136 169.037 252.236 169.037C249.788 169.02 247.357 169.028 244.935 169.028Z" fill="white"/>
<path d="M302.822 181.83C296.581 181.872 290.769 178.045 288.38 172.325C286.008 166.639 287.413 159.792 291.862 155.503C293.326 154.089 295.042 152.777 296.867 154.72C298.549 156.52 297.237 157.976 295.841 159.397C291.761 163.544 291.753 169.457 295.715 173.385C299.55 177.179 305.749 177.238 309.652 173.52C313.631 169.718 313.681 163.678 309.753 159.506C309.551 159.296 309.358 159.086 309.139 158.892C307.684 157.597 307.272 156.058 308.677 154.619C310.132 153.139 311.688 153.82 313.076 154.981C317.753 158.892 319.502 166.32 317.122 172.182C314.758 178.003 309.148 181.797 302.822 181.83Z" fill="white"/>
<path d="M216.21 159.179C212.677 159.179 209.127 159.053 205.586 159.221C203.433 159.322 202.97 158.472 202.979 156.529C202.987 154.679 203.256 153.737 205.477 153.796C211.205 153.947 216.942 153.888 222.67 153.812C224.167 153.796 224.554 154.216 224.697 155.739C224.983 158.859 224.066 161.198 221.736 163.368C218.069 166.783 214.704 170.526 210.541 174.833C214.839 174.833 218.338 174.925 221.837 174.799C223.797 174.723 224.756 174.95 224.739 177.348C224.722 179.736 223.94 180.233 221.736 180.165C216.588 180.014 211.441 180.182 206.293 180.073C204.981 180.048 202.844 181.007 202.466 179.291C202.011 177.205 201.557 174.833 203.652 172.856C207.521 169.205 211.171 165.328 214.881 161.509C215.428 160.945 216.386 160.567 216.21 159.179Z" fill="white"/>
<path d="M349.876 164.427C349.926 169.399 350.179 174.378 349.775 179.349C348.875 180.527 347.723 181.175 346.242 180.645C344.686 180.09 344.526 178.727 344.518 177.305C344.493 173.739 344.644 170.156 344.341 166.606C343.837 160.659 340.228 157.168 335.223 157.37C330.589 157.564 327.174 161.652 327.047 167.27C326.98 170.357 327.047 173.444 327.014 176.531C326.988 178.5 326.997 180.695 324.23 180.729C321.471 180.762 321.395 178.668 321.412 176.632C321.437 173.545 321.412 170.458 321.42 167.371C321.445 159.246 326.753 152.82 334.222 151.861C341.246 150.961 347.411 155.713 349.523 163.645C349.598 163.914 349.758 164.167 349.876 164.427Z" fill="white"/>
<path d="M171.999 180.056C168.752 181.04 167.726 179.181 166.818 176.599C164.437 169.895 161.872 163.25 159.281 156.63C158.49 154.611 158.558 153.93 161.115 153.745C164.597 153.492 166.38 154.586 167.289 157.967C168.155 161.206 169.602 164.284 170.788 167.439C171.023 168.061 171.057 168.995 171.806 169.054C172.865 169.138 172.781 167.985 173.034 167.354C174.548 163.502 175.944 159.608 177.416 155.747C178.013 154.174 183.54 152.912 184.709 154.081C185.272 154.645 184.919 155.343 184.683 155.957C181.832 163.527 178.938 171.072 176.129 178.659C175.271 180.956 173.387 179.82 171.999 180.056Z" fill="white"/>
<path d="M82.4005 166.706C82.4005 163.14 82.4594 159.574 82.3752 156.007C82.3332 154.384 82.8884 153.812 84.5538 153.829C90.9633 153.904 97.3729 153.913 103.782 153.82C105.566 153.795 106.239 154.342 106.104 156.125C105.995 157.681 106.348 159.279 103.858 159.203C99.9804 159.094 96.0859 159.279 92.2082 159.136C90.1727 159.06 89.7857 159.86 89.8278 161.668C89.8698 163.451 90.0044 164.629 92.3007 164.461C94.8158 164.276 97.3476 164.494 99.871 164.393C101.427 164.326 101.671 165.1 101.545 166.328C101.427 167.464 102.066 169.028 99.9552 169.02C97.5243 169.011 95.0849 169.196 92.6793 168.969C90.2315 168.742 89.6596 169.726 89.8446 171.922C90.0128 174.033 89.8278 176.161 89.9035 178.281C89.954 179.626 89.4745 180.081 88.0782 180.165C82.4005 180.51 82.4005 180.56 82.4005 175.093C82.4005 172.3 82.4005 169.499 82.4005 166.706Z" fill="white"/>
<path d="M259.15 166.943C259.15 163.376 259.234 159.81 259.117 156.252C259.049 154.208 259.84 153.392 261.842 153.627C261.935 153.636 262.036 153.627 262.136 153.627C267.545 153.669 266.838 153.139 266.872 158.178C266.906 162.998 266.948 167.817 266.838 172.629C266.796 174.429 267.419 174.942 269.177 174.883C273.055 174.765 276.941 174.942 280.818 174.807C282.854 174.732 282.997 175.775 282.938 177.305C282.887 178.777 283.165 180.199 280.835 180.165C274.333 180.073 267.831 180.098 261.329 180.157C259.647 180.174 259.108 179.484 259.134 177.919C259.184 174.26 259.15 170.601 259.15 166.943Z" fill="white"/>
<path d="M111.235 167.002C111.235 163.537 111.353 160.071 111.193 156.614C111.1 154.545 111.605 153.418 113.876 153.872C115.298 154.158 117.207 152.904 117.998 155.335C118.242 156.067 119.217 155.268 119.73 155.033C121.606 154.175 123.583 153.779 125.61 153.51C127.074 153.317 128.302 153.645 127.982 155.394C127.713 156.891 129.362 159.297 126.14 159.617C118.46 160.382 118.46 160.407 118.46 167.953C118.46 171.132 118.317 174.312 118.511 177.474C118.645 179.729 117.779 180.25 115.676 180.166C110.545 179.972 111.294 180.738 111.243 175.657C111.21 172.772 111.235 169.887 111.235 167.002Z" fill="white"/>
<path d="M196.594 166.908C196.594 170.374 196.443 173.856 196.645 177.313C196.788 179.711 195.871 180.468 193.642 180.148C193.162 180.081 192.666 180.081 192.187 180.148C189.899 180.493 189.158 179.584 189.209 177.28C189.344 170.34 189.318 163.401 189.226 156.461C189.201 154.51 189.688 153.736 191.808 153.812C197.62 154.03 196.476 153.139 196.586 158.522C196.645 161.315 196.594 164.107 196.594 166.908Z" fill="white"/>
<path d="M180.688 205.064C176.171 205.089 175.524 203.835 176.205 200.185C176.541 198.402 177.399 196.459 176.373 194.322C175.28 192.043 177.08 189.645 179.628 189.326C181.437 189.099 183.161 190.184 185.037 189.603C185.559 189.443 186.274 190.327 185.861 190.764C183.809 192.959 184.381 197.947 179.284 196.955C178.88 196.879 178.51 197.132 178.442 197.56C178.358 198.149 178.779 198.444 179.275 198.486C180.142 198.561 181.016 198.578 181.883 198.57C183.54 198.545 185.104 198.772 185.483 200.698C185.878 202.75 184.743 203.995 182.875 204.609C181.992 204.921 181.016 204.996 180.688 205.064Z" fill="white"/>
<path d="M112.64 191.824C112.707 195.735 112.076 196.467 108.156 196.921C107.5 196.997 106.626 196.829 106.71 197.804C106.76 198.46 107.5 198.544 108.098 198.561C109.065 198.586 110.032 198.553 110.999 198.595C112.362 198.662 113.506 199.158 113.758 200.63C114.002 202.035 113.708 203.297 112.312 204.096C110.251 205.265 108.064 205.366 105.86 204.744C104.531 204.365 103.429 203.112 104.026 201.934C104.851 200.302 104.245 198.553 104.96 197.072C105.406 196.139 105.162 195.567 104.842 194.742C103.623 191.639 105.507 189.149 108.913 189.334C110.52 189.426 112.118 189.712 113.725 189.906C114.7 191.294 112.774 191.058 112.64 191.824Z" fill="white"/>
<path d="M305.127 156.638C305.127 158.564 305.136 160.49 305.127 162.416C305.119 164.015 304.362 165.041 302.705 165.032C301.224 165.024 300.375 164.124 300.366 162.635C300.341 158.589 300.324 154.543 300.383 150.497C300.408 149.051 301.266 148.134 302.78 148.151C304.303 148.167 305.068 149.135 305.11 150.573C305.169 152.583 305.119 154.611 305.127 156.638Z" fill="white"/>
<path d="M136.696 195.281C136.604 195.281 136.494 195.255 136.41 195.289C135.384 195.676 133.458 194.339 133.365 196.189C133.273 197.956 134.955 198.628 136.696 198.57C137.268 198.553 137.857 198.511 138.412 198.376C138.942 198.25 139.346 198.225 139.539 198.839C139.766 199.545 139.413 200.042 138.816 200.159C136.604 200.605 134.324 200.891 132.583 199.041C130.623 196.963 130.859 194.465 131.742 192.042C132.549 189.838 134.366 189.098 136.621 189.334C138.883 189.569 140.852 192.143 140.465 194.305C140.28 195.281 140.28 195.281 136.696 195.281Z" fill="white"/>
<path d="M149.154 198.57C149.137 198.57 150.331 197.611 150.382 199.167C150.424 200.302 149.246 200.285 148.413 200.395C144.552 200.908 142.046 198.973 141.81 195.331C141.583 191.79 143.737 189.266 146.874 189.3C148.624 189.317 149.81 190.124 150.583 191.605C151.887 194.111 151.198 195.264 148.405 195.281C147.917 195.281 147.404 195.171 146.958 195.306C145.991 195.583 144.25 194.473 144.174 196.256C144.098 197.989 145.629 198.561 147.244 198.578C147.639 198.578 148.026 198.57 149.154 198.57Z" fill="white"/>
<path d="M88.7259 198.552C88.8185 198.536 89.2979 198.485 89.7606 198.351C90.3073 198.182 90.7279 198.275 90.9129 198.822C91.1484 199.503 90.7867 200.008 90.1727 200.142C88.0446 200.605 85.8408 200.866 84.1081 199.234C82.022 197.274 82.0052 194.776 82.9052 192.269C83.637 190.234 85.21 189.291 87.4054 189.3C89.1549 189.3 90.3578 190.133 91.14 191.596C92.4775 194.078 91.7625 195.264 88.9783 195.28C88.3979 195.28 87.7923 195.188 87.2371 195.306C86.3371 195.499 84.8146 194.591 84.68 196.214C84.5539 197.703 85.8577 198.283 87.1698 198.544C87.5399 198.62 87.9437 198.552 88.7259 198.552Z" fill="white"/>
<path d="M120.546 194.751C120.546 193.985 120.328 193.127 120.597 192.471C120.992 191.496 119.074 187.971 122.809 190.234C122.843 190.251 122.961 190.099 123.045 190.091C128.605 189.334 129.219 189.864 129.227 195.466C129.227 196.711 129.235 197.964 129.185 199.209C129.16 199.831 128.891 200.311 128.142 200.302C127.368 200.294 127.191 199.772 127.183 199.158C127.166 197.527 127.175 195.895 127.166 194.263C127.166 192.9 127.284 191.294 125.366 191.277C123.692 191.26 122.759 192.505 122.574 194.069C122.405 195.491 122.548 196.946 122.498 198.385C122.473 199.175 122.818 200.328 121.43 200.277C120.26 200.235 120.58 199.2 120.555 198.511C120.513 197.249 120.546 195.996 120.546 194.751Z" fill="white"/>
<path d="M165.463 194.674C165.463 193.715 165.354 192.74 165.489 191.797C165.648 190.721 164.715 188.046 167.558 190.115C167.676 190.199 168.029 189.964 168.273 189.896C172.68 188.744 174.043 189.779 174.135 194.363C174.161 195.709 174.169 197.055 174.127 198.392C174.102 199.208 174.337 200.31 172.975 200.251C171.78 200.192 172.117 199.174 172.1 198.485C172.049 197.046 172.083 195.608 172.083 194.161C172.083 192.782 172.134 191.2 170.207 191.242C168.55 191.284 167.625 192.521 167.474 194.102C167.331 195.625 167.432 197.172 167.415 198.703C167.406 199.486 167.423 200.352 166.271 200.243C165.287 200.15 165.48 199.309 165.463 198.686C165.438 197.366 165.463 196.02 165.463 194.674Z" fill="white"/>
<path d="M93.7135 194.751C93.7135 193.784 93.5957 192.808 93.7471 191.866C93.9153 190.789 92.9144 188.139 95.8247 190.066C95.9677 190.158 96.3126 189.956 96.5649 189.897C101.149 188.846 102.352 189.755 102.402 194.372C102.419 195.819 102.419 197.266 102.394 198.704C102.386 199.36 102.445 200.202 101.511 200.244C100.342 200.294 100.485 199.327 100.468 198.587C100.417 196.955 100.401 195.314 100.375 193.674C100.358 192.581 100.308 191.42 98.9201 191.226C97.6164 191.041 96.7668 191.798 96.1696 192.926C95.3873 194.389 95.9088 195.962 95.6565 197.459C95.4967 198.435 96.4892 200.26 94.6387 200.176C93.0069 200.101 93.9153 198.343 93.7471 197.342C93.5957 196.5 93.7135 195.617 93.7135 194.751Z" fill="white"/>
<path d="M153.208 194.691C153.208 194.111 153.208 193.539 153.208 192.959C153.208 189.964 154.949 188.635 157.826 189.468C158.128 189.56 158.49 189.922 158.557 190.225C158.625 190.519 158.397 191.159 158.229 191.184C154.553 191.764 155.319 194.565 155.151 196.988C155.067 198.115 156.076 200.209 154.057 200.142C152.476 200.092 153.435 198.106 153.241 196.996C153.107 196.248 153.208 195.457 153.208 194.691Z" fill="white"/>
<path d="M112.639 191.824C113.001 191.184 113.354 190.545 113.716 189.914C114.549 189.771 115.381 189.595 116.222 189.494C117.223 189.376 117.896 189.67 117.879 190.873C117.837 193.556 117.871 196.24 117.863 198.923C117.863 199.629 117.787 200.319 116.828 200.311C115.836 200.302 115.886 199.529 115.869 198.881C115.844 197.249 115.861 195.626 115.852 193.994C115.844 190.781 115.76 190.722 112.639 191.824Z" fill="white"/>
<path d="M162.772 195.045C162.772 195.718 162.89 196.416 162.747 197.055C162.511 198.148 163.579 200.15 161.847 200.142C159.971 200.134 160.989 198.073 160.829 196.92C160.661 195.692 160.812 194.431 160.778 193.186C160.762 192.546 161.006 191.815 160.299 191.344C159.811 191.024 159.248 190.713 159.693 190.006C160.139 189.291 160.888 189.544 161.535 189.51C162.385 189.468 162.772 189.905 162.755 190.73C162.755 190.822 162.764 190.923 162.764 191.016C162.772 192.361 162.772 193.707 162.772 195.045Z" fill="white"/>
<path d="M116.391 187.786C115.466 187.836 115.239 187.298 115.264 186.515C115.289 185.725 115.575 185.245 116.467 185.279C117.333 185.304 117.653 185.775 117.653 186.566C117.653 187.399 117.199 187.777 116.391 187.786Z" fill="white"/>
<path d="M161.451 185.288C162.36 185.305 162.536 185.902 162.528 186.65C162.519 187.517 162.006 187.803 161.216 187.803C160.257 187.803 160.156 187.189 160.181 186.449C160.206 185.624 160.585 185.195 161.451 185.288Z" fill="white"/>
<path d="M24.0419 175.388C17.052 175.447 11.3238 169.769 11.2481 162.712C11.1808 156.1 17.0436 150.246 23.8905 150.103C30.6786 149.968 36.5666 155.848 36.6759 162.855C36.7769 169.533 30.9309 175.329 24.0419 175.388Z" fill="white"/>
<path d="M147.412 171.72C147.421 175.85 147.421 175.85 143.661 175.875C139.472 175.901 137.992 174.942 138.017 172.25C138.042 169.659 139.691 168.684 144.098 168.633C146.437 168.6 148.127 169.172 147.412 171.72Z" fill="black"/>
<path d="M240.897 164.427C240.031 164.427 239.164 164.427 238.29 164.427C235.236 164.419 234.757 163.637 236.12 160.886C237.499 158.085 241.503 157.025 244.052 158.851C245.667 160.003 246.55 161.786 246.079 163.603C245.641 165.277 243.799 164.124 242.622 164.41C242.075 164.537 241.469 164.427 240.897 164.427Z" fill="black"/>
<path d="M180.368 203.255C179.208 203.154 177.652 203.541 177.727 201.816C177.795 200.269 179.241 200.294 180.402 200.403C181.529 200.513 183.413 199.781 183.439 201.53C183.472 203.162 181.639 203.154 180.368 203.255Z" fill="black"/>
<path d="M180.326 195.171C178.913 195.146 178.19 194.406 178.24 193.043C178.291 191.841 178.93 191.142 180.234 191.1C181.655 191.058 182.463 191.815 182.496 193.102C182.53 194.381 181.756 195.205 180.326 195.171Z" fill="black"/>
<path d="M108.645 203.255C107.517 203.129 105.953 203.541 106.02 201.817C106.079 200.252 107.543 200.319 108.695 200.404C109.839 200.488 111.723 199.857 111.765 201.531C111.799 203.112 109.965 203.171 108.645 203.255Z" fill="black"/>
<path d="M108.627 195.146C107.155 195.188 106.516 194.338 106.558 193.026C106.592 191.84 107.265 191.1 108.56 191.108C109.906 191.117 110.781 191.723 110.806 193.11C110.823 194.498 109.973 195.121 108.627 195.146Z" fill="black"/>
<path d="M135.796 193.64C135.09 193.244 133.559 194.346 133.668 192.647C133.735 191.638 134.762 191.167 135.838 191.133C137.066 191.1 138.177 191.688 138.126 192.807C138.067 194.287 136.587 193.278 135.796 193.64Z" fill="black"/>
<path d="M146.756 193.717C145.831 193.288 144.359 194.28 144.317 192.842C144.284 191.824 145.394 191.151 146.605 191.126C147.825 191.101 148.885 191.622 148.859 192.791C148.834 194.406 147.286 193.052 146.756 193.717Z" fill="black"/>
<path d="M84.7725 193.422C84.9239 191.958 85.6725 191.235 87.0183 191.125C88.3894 191.016 89.1801 191.722 89.6763 193.194C88.0613 193.926 86.4463 193.59 84.7725 193.422Z" fill="black"/>
<path d="M17.3215 162.939C17.2962 159.053 20.1813 156.159 24.0927 156.176C27.7853 156.193 30.7545 159.103 30.8134 162.77C30.8723 166.429 27.6255 169.659 23.9581 169.601C20.2318 169.525 17.3467 166.631 17.3215 162.939Z" fill="#040405"/>
</svg>
