<svg width="350" height="350" viewBox="0 0 350 350" fill="none" xmlns="http://www.w3.org/2000/svg">
<path d="M200.514 148.161C200.514 132.885 200.514 117.609 200.514 102.333C200.514 99.6304 200.581 99.5633 202.95 101.006C204.796 102.132 206.554 103.406 208.348 104.622C209.191 105.192 209.475 105.975 209.471 107.007C209.452 134.454 209.456 161.901 209.49 189.348C209.49 190.477 209.09 191.234 208.184 191.819C206.207 193.098 204.259 194.421 202.267 195.666C200.734 196.624 200.529 196.508 200.521 194.734C200.499 190.388 200.514 186.041 200.514 181.695C200.514 170.515 200.514 159.34 200.514 148.161Z" fill="white"/>
<path d="M190.998 148.162C190.998 131.965 190.998 115.768 190.998 99.5715C190.998 98.9527 191.027 98.3302 190.998 97.7114C190.923 96.2726 191.248 95.6873 192.911 96.2465C198.746 98.2109 198.765 98.155 198.765 104.272C198.765 134.433 198.739 164.589 198.817 194.75C198.824 196.99 198.175 198.239 196.026 198.779C195.195 198.988 194.419 199.42 193.613 199.737C191.072 200.733 190.998 200.684 190.998 197.87C190.994 185.397 190.994 172.924 190.994 160.452C190.998 156.355 190.998 152.258 190.998 148.162Z" fill="white"/>
<path d="M181.888 147.983C181.888 130.665 181.888 113.35 181.888 96.0311C181.888 93.5783 181.895 93.5783 184.368 94.0368C188.976 94.8904 188.976 94.8904 188.976 99.632C188.976 132.652 188.953 165.675 189.024 198.694C189.028 200.719 188.446 201.52 186.469 201.837C181.168 202.691 181.899 203.101 181.895 198.258C181.876 181.499 181.888 164.739 181.888 147.983Z" fill="white"/>
<path d="M210.965 188.807C210.965 188.132 210.965 187.454 210.965 186.779C210.965 161.073 210.965 135.367 210.965 109.661C210.965 109.225 210.984 108.793 210.969 108.357C210.932 107.265 211.432 107.134 212.167 107.768C215.099 110.295 217.397 113.385 219.706 116.457C219.99 116.837 219.904 117.534 219.904 118.082C219.911 138.137 219.893 158.192 219.941 178.25C219.945 180.11 218.788 181.147 217.815 182.395C215.908 184.841 213.644 186.913 211.42 189.031C211.271 188.956 211.118 188.882 210.965 188.807Z" fill="white"/>
<path d="M221.167 118.93C232.542 130.828 232.516 165.943 221.167 177.566C221.167 158.003 221.167 138.537 221.167 118.93Z" fill="white"/>
<path d="M179.612 179.199C179.612 186.453 179.567 193.711 179.645 200.961C179.664 202.649 179.164 203.205 177.441 203.179C172.945 203.108 172.941 203.183 172.941 198.661C172.941 184.958 172.971 171.255 172.908 157.552C172.9 155.8 173.355 155.141 175.183 155.189C180.455 155.327 179.559 154.738 179.601 159.483C179.649 166.051 179.612 172.623 179.612 179.199Z" fill="white"/>
<path d="M172.942 116.976C172.942 109.718 172.98 102.46 172.912 95.2023C172.898 93.6702 173.36 93.1782 174.912 93.1856C179.613 93.2043 179.613 93.1446 179.613 97.8974C179.613 111.421 179.613 124.942 179.609 138.465C179.609 140.907 179.598 140.907 177.15 140.915C172.942 140.933 172.942 140.933 172.942 136.702C172.942 130.123 172.942 123.547 172.942 116.976Z" fill="white"/>
<path d="M126.115 216.362C127.909 216.482 129.756 216.359 131.483 216.757C137.273 218.099 140.231 224.82 137.978 230.926C136.359 235.314 132.983 237.055 128.666 237.371C126.256 237.547 123.824 237.379 121.399 237.424C120.34 237.442 119.996 236.976 120 235.97C120.022 229.946 120.026 223.922 120.004 217.898C120 216.854 120.444 216.444 121.451 216.459C123.003 216.482 124.559 216.467 126.111 216.467C126.111 216.433 126.111 216.396 126.115 216.362Z" fill="white"/>
<path d="M164.368 178.917C164.368 171.716 164.424 164.517 164.331 157.316C164.309 155.545 164.939 155.086 166.584 155.127C170.968 155.236 170.386 154.811 170.393 158.911C170.416 172.752 170.405 186.596 170.401 200.437C170.401 203.114 170.393 203.136 167.778 203.117C163.887 203.087 164.391 203.531 164.376 199.774C164.346 192.822 164.365 185.869 164.368 178.917Z" fill="white"/>
<path d="M164.368 117.08C164.368 109.822 164.413 102.564 164.334 95.3064C164.319 93.6997 164.752 93.1219 166.42 93.1853C170.979 93.3568 170.378 92.5889 170.389 97.1366C170.419 110.907 170.4 124.68 170.397 138.45C170.397 140.899 170.382 140.929 167.938 140.903C163.812 140.862 164.394 141.414 164.375 137.362C164.342 130.604 164.364 123.842 164.368 117.08Z" fill="white"/>
<path d="M216.907 226.653C216.792 223.999 216.732 221.341 216.538 218.694C216.415 217.032 216.948 216.376 218.702 216.42C221.776 216.499 221.779 216.406 221.779 219.432C221.779 224.77 221.731 230.108 221.809 235.446C221.832 236.99 221.328 237.396 219.802 237.482C217.646 237.605 216.31 237.038 215.251 234.999C213.576 231.775 211.513 228.755 209.606 225.639C208.857 226.004 209.114 226.567 209.118 226.992C209.129 229.907 209.151 232.826 209.241 235.741C209.274 236.87 209.024 237.422 207.722 237.448C204.175 237.526 204.175 237.582 204.175 233.993C204.175 228.904 204.242 223.812 204.141 218.724C204.104 216.898 204.798 216.54 206.503 216.379C209.327 216.111 210.946 217.17 212.169 219.652C213.389 222.128 215.023 224.398 216.475 226.757C216.62 226.724 216.765 226.69 216.907 226.653Z" fill="white"/>
<path d="M140.88 116.933C140.88 109.734 140.962 102.54 140.832 95.3457C140.794 93.2358 141.757 93.0569 143.406 93.0867C144.965 93.1166 146.088 93.1054 146.073 95.2786C145.991 109.794 146.01 124.313 146.058 138.829C146.066 140.45 145.573 140.995 143.932 140.946C140.884 140.857 140.88 140.946 140.88 137.964C140.88 130.956 140.88 123.944 140.88 116.933Z" fill="white"/>
<path d="M156.537 117.077C156.537 109.816 156.619 102.554 156.489 95.2966C156.448 93.1234 157.53 93.0675 159.112 93.0973C160.611 93.1234 161.816 92.9705 161.801 95.2258C161.708 109.745 161.723 124.268 161.79 138.787C161.798 140.55 161.197 141.143 159.552 140.919C159.246 140.878 158.925 140.875 158.623 140.919C157.007 141.15 156.481 140.517 156.5 138.858C156.586 131.597 156.537 124.335 156.537 117.077Z" fill="white"/>
<path d="M153.926 116.875C153.926 124.196 153.881 131.521 153.959 138.842C153.978 140.479 153.493 141.15 151.852 140.922C151.363 140.855 150.855 140.863 150.363 140.919C149.016 141.068 148.569 140.412 148.703 139.174C148.729 138.928 148.703 138.678 148.703 138.429C148.703 124.155 148.695 109.882 148.725 95.6127C148.725 94.8187 148.237 93.6333 149.315 93.3127C150.669 92.9101 152.18 92.8542 153.519 93.3947C154.198 93.6669 153.911 94.6286 153.911 95.2847C153.933 102.479 153.926 109.677 153.926 116.875Z" fill="white"/>
<path d="M156.538 178.721C156.538 171.53 156.582 164.336 156.504 157.149C156.486 155.524 156.952 154.838 158.601 155.062C159.209 155.144 159.839 155.11 160.459 155.077C161.436 155.024 161.798 155.509 161.749 156.426C161.731 156.795 161.753 157.168 161.753 157.541C161.753 171.799 161.761 186.057 161.731 200.315C161.731 201.102 162.234 202.31 161.156 202.604C159.802 202.973 158.287 203.014 156.941 202.541C156.258 202.302 156.549 201.314 156.549 200.662C156.534 193.352 156.538 186.039 156.538 178.721Z" fill="white"/>
<path d="M153.926 179.079C153.926 186.083 153.93 193.091 153.926 200.095C153.926 202.772 153.923 202.772 151.158 202.764C150.849 202.764 150.535 202.734 150.229 202.764C149.118 202.865 148.67 202.391 148.7 201.262C148.752 199.219 148.711 197.169 148.711 195.126C148.711 182.478 148.704 169.834 148.733 157.186C148.733 156.47 148.293 155.326 149.446 155.177C150.826 154.998 152.319 154.722 153.632 155.386C154.188 155.669 153.923 156.53 153.926 157.134C153.93 164.448 153.926 171.765 153.926 179.079Z" fill="white"/>
<path d="M166.515 237.415C164.157 237.415 161.795 237.36 159.438 237.438C158.18 237.479 157.826 236.931 157.789 235.794C157.736 234.254 158.02 232.938 159.05 231.667C161.419 228.737 163.608 225.658 165.914 222.673C166.63 221.744 166.474 221.383 165.324 221.387C163.586 221.387 161.848 221.319 160.113 221.394C158.822 221.45 158.274 220.969 158.4 219.676C158.46 219.06 158.441 218.434 158.412 217.815C158.367 216.857 158.829 216.47 159.747 216.47C164.34 216.477 168.932 216.477 173.524 216.477C174.338 216.477 174.774 216.801 174.8 217.689C174.852 219.318 174.741 220.775 173.573 222.177C171.163 225.073 168.984 228.163 166.705 231.168C166.481 231.466 166.141 231.742 166.265 232.137C166.44 232.685 166.977 232.536 167.38 232.54C169.428 232.562 171.476 232.596 173.524 232.543C174.685 232.514 175.293 232.879 175.177 234.131C175.125 234.683 175.129 235.25 175.177 235.805C175.285 236.994 174.808 237.475 173.584 237.441C171.234 237.371 168.872 237.415 166.515 237.415Z" fill="white"/>
<path d="M185.977 221.372C183.395 221.372 181.354 221.331 179.317 221.387C178.116 221.421 177.702 220.925 177.646 219.751C177.501 216.575 177.568 216.455 180.657 216.452C184.07 216.448 187.48 216.407 190.894 216.478C191.863 216.496 193.304 215.885 193.706 217.145C194.143 218.509 194.244 220.075 193.221 221.41C190.815 224.548 188.424 227.702 186.029 230.852C185.7 231.28 185.1 231.69 185.413 232.276C185.671 232.753 186.316 232.533 186.79 232.537C188.711 232.559 190.636 232.592 192.557 232.537C193.733 232.503 194.303 232.906 194.195 234.139C194.139 234.754 194.15 235.381 194.191 236C194.255 237.032 193.811 237.431 192.777 237.427C188.002 237.401 183.223 237.397 178.448 237.427C177.404 237.435 177.165 236.98 177.012 235.996C176.639 233.565 177.907 231.895 179.261 230.169C181.425 227.411 183.518 224.6 185.977 221.372Z" fill="white"/>
<path d="M146.71 216.459C147.612 216.459 148.236 216.489 148.855 216.451C149.866 216.395 150.418 216.794 150.731 217.812C152.589 223.84 154.503 229.852 156.417 235.861C156.756 236.931 156.611 237.546 155.305 237.423C154.813 237.378 154.313 237.419 153.817 237.419C150.5 237.419 150.481 237.427 149.407 234.326C149.082 233.39 148.612 232.823 147.538 232.965C147.109 233.021 146.669 232.969 146.236 232.969C143.464 232.969 143.333 232.939 142.737 235.694C142.341 237.509 141.222 237.446 139.868 237.427C137.055 237.39 137.04 237.416 137.835 234.795C139.469 229.412 141.3 224.082 142.692 218.64C143.401 215.87 145.255 216.56 146.71 216.459Z" fill="white"/>
<path d="M140.881 178.94C140.881 171.686 140.956 164.432 140.833 157.182C140.799 155.173 141.694 155.013 143.28 155.035C144.802 155.057 145.779 155.076 145.768 157.137C145.682 171.645 145.682 186.15 145.768 200.658C145.779 202.663 144.907 202.827 143.321 202.805C141.799 202.783 140.795 202.768 140.829 200.702C140.96 193.448 140.881 186.194 140.881 178.94Z" fill="white"/>
<path d="M138.63 179.012C138.63 186.213 138.641 193.415 138.615 200.621C138.611 201.31 138.981 202.291 138.097 202.608C137.112 202.962 135.948 202.999 134.993 202.578C134.202 202.227 134.556 201.24 134.556 200.535C134.538 189.546 134.541 178.553 134.541 167.564C134.541 164.149 134.605 160.731 134.515 157.32C134.474 155.736 134.795 155.032 136.627 155.006C138.608 154.976 138.656 155.941 138.649 157.406C138.611 164.604 138.63 171.806 138.63 179.012Z" fill="white"/>
<path d="M138.641 117.055C138.641 124.309 138.6 131.563 138.675 138.817C138.69 140.409 138.279 140.975 136.6 140.968C134.952 140.96 134.504 140.45 134.511 138.832C134.567 124.324 134.567 109.816 134.511 95.3041C134.504 93.7161 134.907 93.142 136.582 93.1495C138.231 93.1569 138.69 93.6714 138.671 95.2892C138.596 102.547 138.641 109.801 138.641 117.055Z" fill="white"/>
<path d="M196.057 226.875C196.06 223.96 196.094 221.045 196.042 218.134C196.023 216.963 196.422 216.508 197.635 216.441C202.768 216.154 202.764 216.121 202.764 221.287C202.764 226.062 202.723 230.837 202.787 235.609C202.805 236.962 202.402 237.435 200.996 237.454C196.053 237.514 196.053 237.566 196.053 232.645C196.053 230.718 196.053 228.795 196.057 226.875Z" fill="white"/>
<path d="M229.98 226.798C229.977 229.773 229.932 232.751 229.999 235.726C230.029 237.027 229.555 237.418 228.275 237.444C223.638 237.534 223.642 237.575 223.642 232.889C223.642 228.051 223.691 223.216 223.616 218.381C223.594 216.916 224.09 216.413 225.534 216.435C230.935 216.525 229.868 215.943 229.977 220.659C230.021 222.705 229.984 224.752 229.98 226.798Z" fill="white"/>
<path d="M129.327 178.942C129.327 171.625 129.323 164.304 129.334 156.986C129.334 156.095 129.088 155.074 130.61 155.067C132.11 155.055 131.931 156.032 131.931 156.949C131.934 171.587 131.934 186.222 131.927 200.861C131.927 201.752 132.173 202.773 130.647 202.78C129.148 202.792 129.327 201.815 129.327 200.898C129.323 193.577 129.327 186.26 129.327 178.942Z" fill="white"/>
<path d="M131.931 117.058C131.931 124.375 131.942 131.696 131.912 139.014C131.908 139.67 132.289 140.628 131.188 140.848C130.069 141.071 129.274 140.889 129.304 139.401C129.371 136.054 129.323 132.703 129.323 129.355C129.323 118.005 129.316 106.654 129.345 95.3032C129.349 94.595 128.894 93.5624 130.069 93.2828C131.382 92.9734 131.968 93.4543 131.957 94.9155C131.901 102.293 131.931 109.673 131.931 117.058Z" fill="white"/>
<path d="M126.715 179.105C126.715 186.184 126.719 193.263 126.715 200.341C126.715 200.9 126.7 201.46 126.663 202.015C126.625 202.563 126.256 202.723 125.764 202.731C125.29 202.738 124.857 202.638 124.786 202.097C124.697 201.422 124.648 200.74 124.648 200.062C124.641 185.964 124.641 171.87 124.644 157.772C124.644 157.399 124.629 157.026 124.659 156.653C124.719 155.926 124.622 155.069 125.764 155.103C126.969 155.14 126.696 156.072 126.7 156.746C126.722 164.202 126.715 171.653 126.715 179.105Z" fill="white"/>
<path d="M129.521 253.97C131.931 248.613 134.102 243.793 136.274 238.974C136.397 238.985 136.524 238.996 136.647 239.007C137.065 242.265 137.494 245.527 137.889 248.789C138.165 251.055 138.411 253.325 138.628 255.599C138.669 256.035 138.852 256.654 138.068 256.743C137.244 256.837 137.214 256.289 137.15 255.692C136.755 251.827 136.337 247.961 135.572 243.939C133.636 248.252 131.696 252.561 129.547 257.351C127.473 252.665 125.593 248.423 123.519 243.741C122.717 245.959 122.989 247.786 122.664 249.523C122.336 251.275 122.358 253.094 122.217 254.88C122.191 255.185 122.131 255.495 122.041 255.789C121.873 256.341 121.65 256.9 120.9 256.691C120.236 256.505 120.37 255.897 120.422 255.446C120.631 253.608 120.889 251.774 121.139 249.94C121.635 246.347 122.138 242.753 123.045 239.067C125.123 243.842 127.201 248.621 129.521 253.97Z" fill="white"/>
<path d="M120.377 178.941C120.377 171.814 120.377 164.683 120.377 157.555C120.377 156.996 120.392 156.441 120.418 155.882C120.441 155.352 120.75 155.125 121.269 155.121C121.769 155.121 122.123 155.307 122.164 155.841C122.209 156.396 122.22 156.955 122.22 157.511C122.224 171.769 122.224 186.023 122.22 200.282C122.22 200.777 122.205 201.273 122.194 201.769C122.179 202.343 121.944 202.705 121.31 202.716C120.679 202.727 120.414 202.403 120.403 201.81C120.396 201.314 120.377 200.818 120.377 200.323C120.373 193.199 120.377 186.068 120.377 178.941Z" fill="white"/>
<path d="M124.852 116.86C124.852 109.789 124.852 102.714 124.855 95.6425C124.855 95.0834 124.866 94.5242 124.904 93.9688C124.941 93.4246 125.307 93.2568 125.799 93.2568C126.303 93.2606 126.639 93.4619 126.672 93.9986C126.702 94.5541 126.717 95.1132 126.717 95.6724C126.721 109.942 126.721 124.211 126.717 138.477C126.717 139.036 126.706 139.595 126.668 140.151C126.631 140.695 126.265 140.863 125.773 140.859C125.269 140.855 124.93 140.658 124.9 140.121C124.87 139.565 124.855 139.006 124.855 138.447C124.852 131.253 124.852 124.058 124.852 116.86Z" fill="white"/>
<path d="M122.239 117.053C122.239 124.188 122.239 131.323 122.239 138.458C122.239 139.017 122.228 139.576 122.195 140.131C122.165 140.668 121.822 140.866 121.318 140.866C120.822 140.866 120.464 140.694 120.426 140.15C120.393 139.654 120.378 139.158 120.378 138.663C120.374 124.27 120.374 109.878 120.378 95.4852C120.378 94.9894 120.389 94.4936 120.423 93.9978C120.456 93.4611 120.796 93.2635 121.299 93.2598C121.795 93.2598 122.157 93.435 122.191 93.9755C122.228 94.5309 122.239 95.09 122.239 95.6492C122.243 102.784 122.239 109.919 122.239 117.053Z" fill="white"/>
<path d="M218.731 256.687C214.833 252.098 210.931 247.509 206.79 242.637C206.331 244.091 206.514 245.195 206.502 246.261C206.473 249.358 206.491 252.46 206.473 255.561C206.469 256.031 206.551 256.624 205.831 256.698C205.115 256.773 205.025 256.255 205.025 255.733C205.018 250.171 205.021 244.606 205.021 239.044C205.178 238.955 205.335 238.865 205.495 238.779C209.416 243.368 213.333 247.957 217.254 252.546C217.396 252.486 217.538 252.43 217.679 252.37C217.679 248.743 217.627 245.113 217.72 241.486C217.743 240.662 216.986 239.096 218.489 239.115C219.683 239.13 219.131 240.621 219.142 241.433C219.202 246.447 219.172 251.465 219.172 256.482C219.022 256.545 218.877 256.616 218.731 256.687Z" fill="white"/>
<path d="M198.653 247.865C198.653 250.407 198.665 252.953 198.646 255.495C198.642 256.025 198.735 256.71 197.877 256.696C197.053 256.681 197.105 256.006 197.094 255.477C197.06 253.43 197.027 251.38 197.072 249.333C197.101 248.036 196.721 247.388 195.273 247.455C193.229 247.552 191.177 247.54 189.129 247.458C187.808 247.406 187.383 247.939 187.42 249.199C187.48 251.246 187.439 253.292 187.42 255.342C187.413 256.028 187.447 256.796 186.398 256.725C185.436 256.658 185.63 255.887 185.63 255.32C185.611 250.358 185.611 245.393 185.626 240.428C185.63 239.791 185.447 238.933 186.533 238.967C187.577 239 187.402 239.843 187.417 240.488C187.45 241.852 187.484 243.22 187.424 244.581C187.376 245.695 187.842 246.184 188.928 246.176C191.162 246.169 193.397 246.169 195.632 246.172C196.65 246.172 197.068 245.654 197.057 244.663C197.042 243.175 197.053 241.684 197.094 240.197C197.109 239.66 197.072 238.989 197.9 239C198.75 239.012 198.638 239.701 198.642 240.227C198.665 242.78 198.653 245.322 198.653 247.865Z" fill="white"/>
<path d="M221.037 247.682C221.037 245.267 221.07 242.847 221.022 240.432C220.999 239.325 221.398 238.87 222.533 238.9C224.577 238.956 226.625 238.904 228.669 238.93C229.192 238.937 229.901 238.822 229.871 239.686C229.841 240.536 229.128 240.372 228.613 240.387C227.252 240.421 225.883 240.451 224.521 240.395C223.383 240.35 222.865 240.704 222.801 241.949C222.603 245.994 222.555 245.99 226.674 245.994C227.416 245.994 228.162 245.994 228.904 246.016C229.423 246.031 229.934 246.094 229.882 246.817C229.837 247.421 229.371 247.451 228.934 247.459C227.386 247.481 225.834 247.514 224.286 247.481C223.267 247.459 222.809 247.869 222.827 248.897C222.853 250.571 222.857 252.245 222.827 253.919C222.809 254.962 223.301 255.342 224.305 255.316C225.73 255.279 227.159 255.294 228.584 255.331C229.095 255.346 229.833 255.164 229.871 255.999C229.915 256.994 229.076 256.774 228.52 256.785C226.599 256.822 224.674 256.744 222.756 256.819C221.488 256.867 220.977 256.442 221.018 255.126C221.089 252.644 221.033 250.161 221.037 247.682Z" fill="white"/>
<path d="M168.274 242.038C165.894 240.211 163.417 239.563 160.753 240.211C156.175 241.326 153.866 246.041 155.459 250.801C156.821 254.872 161.559 256.818 165.875 255.073C166.274 254.913 166.644 254.663 167.054 254.533C167.453 254.406 167.841 253.593 168.27 254.309C168.625 254.906 168.348 255.48 167.703 255.852C162.685 258.767 155.496 256.896 153.732 250.824C152.643 247.074 153.307 243.6 156.239 240.968C159.194 238.318 162.753 237.844 166.472 239.305C167.513 239.719 168.785 240.129 168.274 242.038Z" fill="white"/>
<path d="M183.499 241.976C181.115 240.205 178.604 239.516 175.866 240.273C171.356 241.518 169.14 246.147 170.747 250.803C172.161 254.9 176.843 256.82 181.175 255.068C181.462 254.952 181.73 254.687 182.01 254.691C182.555 254.691 182.999 253.498 183.525 254.426C183.943 255.157 183.346 255.694 182.678 256.022C179.104 257.781 175.538 257.722 172.284 255.444C169.363 253.401 168.207 250.315 168.636 246.815C169.147 242.673 171.397 239.937 175.586 238.871C178.074 238.237 180.365 238.603 182.596 239.706C183.435 240.127 184.036 240.705 183.499 241.976Z" fill="white"/>
<path d="M147.342 238.893C149.181 243.444 151.02 248.003 152.859 252.562C153.251 253.535 153.647 254.508 154.027 255.488C154.191 255.909 154.658 256.431 153.919 256.714C153.337 256.938 152.8 256.715 152.553 256.092C152.057 254.828 151.531 253.572 151.14 252.275C150.822 251.22 150.267 250.687 149.144 250.84C149.021 250.855 148.897 250.84 148.771 250.84C147.036 250.866 145.085 250.404 143.634 251.056C142.111 251.742 142.175 254.019 141.399 255.533C141.287 255.753 141.235 256.003 141.115 256.215C140.832 256.726 140.358 256.893 139.851 256.681C139.19 256.401 139.675 255.909 139.806 255.589C140.944 252.786 142.123 249.997 143.294 247.209C144.275 244.875 145.256 242.538 146.267 240.22C146.469 239.746 146.521 239.116 147.342 238.893Z" fill="white"/>
<path d="M178.16 148.073C178.16 149.314 178.116 150.555 178.171 151.793C178.227 152.967 177.97 153.634 176.56 153.619C175.291 153.604 174.564 153.362 174.59 151.912C174.642 149.31 174.639 146.704 174.59 144.103C174.564 142.679 175.239 142.377 176.534 142.369C177.914 142.362 178.227 142.969 178.168 144.173C178.112 145.467 178.16 146.772 178.16 148.073Z" fill="white"/>
<path d="M160.936 147.908C160.94 149.145 160.891 150.387 160.951 151.62C161.018 152.962 160.682 153.656 159.108 153.63C157.627 153.603 157.344 152.944 157.366 151.695C157.411 149.16 157.418 146.622 157.366 144.087C157.34 142.804 157.847 142.353 159.127 142.376C160.321 142.394 161.018 142.648 160.947 144.016C160.88 145.306 160.932 146.61 160.936 147.908Z" fill="white"/>
<path d="M169.21 148.109C169.21 149.343 169.161 150.581 169.225 151.814C169.285 153.007 168.986 153.604 167.602 153.619C166.173 153.634 165.796 153.089 165.837 151.762C165.916 149.172 165.905 146.573 165.845 143.983C165.815 142.767 166.281 142.38 167.471 142.376C168.699 142.372 169.318 142.682 169.229 144.035C169.139 145.388 169.206 146.752 169.21 148.109Z" fill="white"/>
<path d="M152.806 148.094C152.806 149.328 152.762 150.566 152.821 151.8C152.877 152.97 152.62 153.611 151.217 153.619C149.807 153.63 149.393 153.127 149.434 151.781C149.516 149.19 149.501 146.592 149.441 144.001C149.415 142.805 149.841 142.376 151.049 142.38C152.254 142.384 152.915 142.648 152.825 144.02C152.735 145.373 152.803 146.734 152.806 148.094Z" fill="white"/>
<path d="M144.977 148.098C144.977 149.396 144.947 150.693 144.988 151.99C145.018 153.008 144.791 153.593 143.571 153.604C142.332 153.615 141.963 153.131 141.985 151.964C142.041 149.31 142.023 146.652 141.993 143.998C141.982 142.984 142.194 142.395 143.41 142.384C144.649 142.373 145.048 142.854 144.992 144.024C144.929 145.377 144.977 146.738 144.977 148.098Z" fill="white"/>
<path d="M202.756 248.043C202.756 250.519 202.76 252.99 202.753 255.465C202.749 256.091 202.768 256.755 201.842 256.748C200.928 256.74 200.928 256.088 200.928 255.458C200.921 250.388 200.921 245.315 200.928 240.245C200.928 239.612 200.94 238.963 201.85 238.963C202.779 238.963 202.749 239.634 202.753 240.253C202.764 242.847 202.756 245.445 202.756 248.043Z" fill="white"/>
<path d="M137.884 148.107C137.884 149.527 137.866 150.951 137.888 152.372C137.903 153.233 137.53 153.576 136.664 153.583C135.761 153.591 135.28 153.326 135.288 152.334C135.314 149.43 135.31 146.527 135.291 143.623C135.288 142.762 135.65 142.419 136.515 142.411C137.418 142.404 137.914 142.665 137.892 143.66C137.858 145.14 137.884 146.624 137.884 148.107Z" fill="white"/>
<path d="M131.509 148.04C131.509 149.524 131.516 151.007 131.505 152.491C131.502 153.128 131.278 153.568 130.524 153.523C129.841 153.482 129.737 153.009 129.737 152.491C129.73 149.46 129.733 146.43 129.741 143.403C129.741 142.833 129.976 142.452 130.614 142.456C131.248 142.46 131.494 142.833 131.494 143.403C131.502 144.95 131.498 146.493 131.498 148.04C131.502 148.04 131.505 148.04 131.509 148.04Z" fill="white"/>
<path d="M126.315 148.02C126.312 149.563 126.323 151.11 126.304 152.653C126.3 153.015 126.237 153.443 125.711 153.388C125.323 153.347 125.26 152.992 125.26 152.69C125.252 149.541 125.252 146.387 125.263 143.237C125.263 142.92 125.386 142.577 125.763 142.581C126.263 142.585 126.304 143.017 126.308 143.386C126.327 144.93 126.315 146.473 126.315 148.02Z" fill="white"/>
<path d="M121.854 148.165C121.854 149.586 121.869 151.01 121.847 152.43C121.839 152.832 121.907 153.403 121.28 153.395C120.799 153.388 120.78 152.911 120.78 152.549C120.769 149.518 120.769 146.492 120.78 143.461C120.78 143.103 120.772 142.626 121.257 142.596C121.91 142.551 121.843 143.133 121.847 143.528C121.869 145.075 121.854 146.618 121.854 148.165Z" fill="white"/>
<path d="M131.935 226.883C131.924 229.955 130.6 232.005 128.343 232.467C127.067 232.728 126.324 232.452 126.362 230.92C126.429 228.192 126.429 225.456 126.362 222.727C126.324 221.199 127.082 220.923 128.35 221.154C130.719 221.59 131.946 223.543 131.935 226.883Z" fill="black"/>
<path d="M146.406 223.176C146.786 224.469 147.208 225.752 147.529 227.06C147.633 227.481 147.947 228.189 147.32 228.357C146.633 228.544 145.824 228.536 145.13 228.365C144.369 228.182 144.88 227.526 144.977 227.123C145.287 225.815 145.675 224.521 146.033 223.224C146.156 223.213 146.283 223.194 146.406 223.176Z" fill="black"/>
<path d="M147.006 241.686C147.965 244.112 148.76 246.159 149.58 248.194C149.927 249.055 149.532 249.324 148.748 249.331C148.685 249.331 148.625 249.338 148.562 249.338C142.634 249.309 143.719 249.939 145.473 245.257C145.876 244.176 146.379 243.132 147.006 241.686Z" fill="black"/>
</svg>
