<svg width="110" height="28" viewBox="0 0 110 28" fill="none" xmlns="http://www.w3.org/2000/svg">
<path d="M21.7388 22.8947C23.8729 19.808 25.6892 16.5208 27.6875 13.3488C28.8938 11.4323 30.0747 9.50191 31.2281 7.55311C31.5251 7.05094 31.8934 6.93577 32.4206 6.93807C36.8222 6.94728 41.2215 6.94268 45.6231 6.93807C45.9178 6.93807 46.2401 6.87127 46.4127 7.20528C46.5624 7.49553 46.3344 7.6729 46.1986 7.89404C42.2736 14.2495 38.3462 20.605 34.4487 26.9789C34.0182 27.6838 33.5624 28.0086 32.683 27.9971C28.4702 27.9418 24.255 27.9741 20.0399 27.9787C19.5611 27.9787 19.0086 28.1238 19.0477 27.336C20.0836 25.9423 21.016 24.4842 21.7388 22.8947Z" fill="white"/>
<path d="M61.3188 13.9159C61.2728 15.0861 60.3726 15.8232 59.834 16.7262C57.7851 20.1585 55.6326 23.5286 53.5653 26.9493C53.1095 27.7026 52.6215 28.0113 51.7029 27.9997C47.497 27.9422 43.2888 27.979 39.0805 27.979C38.6178 27.979 38.0469 28.1264 38.0837 27.3386C39.5617 25.5234 40.5769 23.4134 41.8108 21.4415C43.2289 19.1772 44.6171 16.8943 45.9868 14.6023C46.2907 14.0932 46.6383 13.8698 47.2346 13.8721C51.9309 13.8997 56.6248 13.9043 61.3188 13.9159Z" fill="white"/>
<path d="M0.0715115 27.8108C-0.163302 27.4606 0.260283 27.2026 0.202731 26.8778C2.88007 22.9964 5.14533 18.8592 7.64081 14.8671C10.5737 10.1748 13.4421 5.44102 16.3404 0.727962C16.3957 0.638124 16.4901 0.573625 16.5637 0.497608C19.7544 0.241914 22.9498 0.389342 26.1428 0.354789C26.5871 0.350182 27.036 0.317935 27.4688 0.458451C27.867 0.615093 27.8808 0.850051 27.5747 1.11035C27.1557 1.46971 26.6676 1.58489 26.1151 1.51117C24.1169 1.24166 22.1072 1.19559 20.0952 1.18637C19.3746 1.18407 18.7047 1.3338 18.021 1.55264C17.084 1.8521 16.4578 2.3727 16.2322 3.3494C16.1655 3.63965 16.0573 3.92759 15.88 4.16946C13.8358 6.95675 12.2887 10.0596 10.355 12.9229C8.54783 15.602 6.85809 18.3685 5.2213 21.1673C4.50075 22.402 3.63516 23.5815 2.85245 24.7977C2.67749 24.9889 2.56008 25.2147 2.43577 25.4427C1.8165 26.5922 1.8119 26.5876 3.03891 26.9285C3.3497 27.016 3.794 27.0667 3.74566 27.4698C3.69962 27.8637 3.22308 27.8476 2.92611 27.8568C1.97765 27.8822 1.01998 27.9605 0.0715115 27.8108Z" fill="white"/>
<path d="M18.5712 21.9296C17.3764 23.7356 16.1816 25.5415 14.9845 27.3498C14.7612 27.7414 14.4412 27.9303 13.9762 27.8889C13.6078 27.8566 13.1175 27.9142 13.0231 27.5065C12.9264 27.0895 13.4536 27.101 13.7206 26.9421C14.5563 26.4422 14.996 25.6291 15.4196 24.8021C16.6236 21.9826 18.4768 19.5684 20.1872 17.0576C21.3912 15.2908 22.7218 13.5792 23.493 11.5406C23.5851 11.2987 23.6841 11.043 23.8453 10.8472C25.5051 8.83623 26.4029 6.34148 28.0006 4.29363C28.7925 3.27777 29.543 2.25039 28.8362 0.861349C28.7602 0.711618 28.9099 0.594137 29.0457 0.515817C30.2773 0.44671 30.5582 0.757688 30.4822 2.10526C29.3956 4.42493 27.8901 6.50043 26.5802 8.6888C23.9351 13.1162 21.2439 17.516 18.5712 21.9296Z" fill="white"/>
<path d="M30.4822 2.10529C30.2083 1.329 30.1185 0.345381 28.8638 0.690913C28.5001 0.997285 28.1364 0.997287 27.7727 0.693219C24.7316 0.688612 21.6882 0.674791 18.6471 0.686308C18.2466 0.688612 17.8506 0.817608 17.45 0.863679C17.0955 0.905143 16.6811 1.05027 16.566 0.495117C16.7387 -0.0116631 17.1646 0.0136745 17.5767 0.011371C21.9622 0.00676389 26.3477 -0.00475581 30.7354 0.00215483C31.6586 0.00445838 31.7967 0.269367 31.2995 1.0687C31.0669 1.43957 30.9173 1.88876 30.4822 2.10529Z" fill="white"/>
<path d="M86.8652 23.6348C86.7915 23.6348 86.7178 23.6348 86.6442 23.6348C85.5092 23.2616 85.4379 23.9987 85.355 24.8142C85.2652 25.6964 85.5875 26.0074 86.4807 25.9844C88.5687 25.9314 90.659 25.9729 92.7493 25.959C93.3824 25.9544 93.8198 26.0535 93.8566 26.8482C93.8935 27.6591 93.5136 27.9286 92.8023 27.9217C90.2285 27.8986 87.6571 27.8572 85.0834 27.8433C82.8158 27.8318 82.8204 27.8433 82.8158 25.5559C82.8112 23.28 82.802 21.0041 82.7767 18.7282C82.7698 18.1201 82.8987 17.7169 83.6261 17.7192C86.8353 17.7331 90.0444 17.7285 93.2512 17.74C93.341 17.74 93.4331 17.8459 93.5229 17.9012C93.1085 18.3297 92.5652 18.2491 92.0541 18.2537C90.3805 18.2698 88.7069 18.2514 87.0355 18.2652C86.6396 18.2675 86.2137 18.1661 85.8085 18.5094C86.117 19.0254 86.6304 18.9171 87.0701 18.9217C88.7437 18.9447 90.4173 18.9217 92.0886 18.9355C92.602 18.9401 93.143 18.8687 93.5574 19.2949C93.2512 19.7118 92.8092 19.5206 92.427 19.5252C90.4265 19.5437 88.4237 19.5805 86.4232 19.5114C85.4885 19.4792 85.3941 19.9813 85.3941 20.6678C85.3918 21.3473 85.5852 21.7274 86.414 21.7297C87.6111 21.732 88.8335 21.4556 90.0122 21.9048C89.6162 22.3701 89.066 22.248 88.5618 22.2711C87.786 22.3079 87.0056 22.225 86.2321 22.324C86.0479 22.3471 85.8384 22.4162 85.8246 22.6281C85.8108 22.8585 86.0272 22.9253 86.2114 22.9368C87.1737 22.9967 88.1359 23.0013 89.0959 22.9345C89.7129 22.8907 89.6507 22.195 90.049 21.9393C90.5347 23.2385 90.3483 23.5357 89.066 23.5564C88.3339 23.568 87.5996 23.6094 86.8652 23.6348Z" fill="white"/>
<path d="M93.5597 19.2935C91.2484 19.2843 88.9394 19.2774 86.6281 19.2682C86.3679 19.2682 86.1032 19.2751 85.8477 19.2383C85.3136 19.1646 85.2445 18.6904 85.2054 18.3105C85.1455 17.7396 85.652 17.9399 85.9236 17.9353C88.4582 17.9099 90.9928 17.9076 93.5252 17.8984C93.6771 18.3612 93.6679 18.8262 93.5597 19.2935Z" fill="white"/>
<path d="M100.291 17.9009C103.058 17.6314 105.825 17.6568 108.59 17.9079C109.034 17.947 109.463 18.1175 109.612 18.6289C109.598 18.7371 109.582 18.85 109.61 18.9537C109.803 19.6931 109.536 20.292 108.905 20.626C108.215 20.9923 107.872 20.3542 107.476 19.9465C107.234 19.7576 106.972 19.6562 106.654 19.6562C104.976 19.6655 103.298 19.6724 101.619 19.6562C101 19.6516 100.749 19.9235 100.749 20.5316C100.751 22.0611 100.733 23.5907 100.712 25.1179C100.703 25.7238 100.97 25.9933 101.589 25.9887C103.268 25.9749 104.946 25.968 106.624 25.9979C107.377 26.0117 107.453 25.5833 107.462 24.9936C107.469 24.5651 107.25 23.8395 108.049 23.9754C108.707 24.086 109.665 23.8026 109.891 24.8392C110.312 26.7742 109.511 27.8131 107.556 27.8062C105.211 27.7993 102.862 27.9329 100.519 27.7325C98.7233 27.1197 98.6381 26.9999 98.6335 25.0166C98.6289 23.6068 98.7003 22.1947 98.6128 20.7896C98.5299 19.4052 98.9213 18.3939 100.291 17.9009Z" fill="white"/>
<path d="M100.291 17.9008C100.13 18.0989 100.008 18.3822 99.8007 18.4767C99.0179 18.836 98.9259 19.4626 98.942 20.2182C98.9765 21.955 98.988 23.6942 98.9466 25.4311C98.9236 26.3686 99.0341 27.1311 100.128 27.3638C100.277 27.396 100.392 27.6033 100.521 27.73C98.9305 27.8383 98.2813 27.32 98.2444 25.7743C98.1984 23.7656 98.2099 21.7569 98.2398 19.7482C98.2583 18.3937 98.8706 17.8754 100.291 17.9008Z" fill="white"/>
<path d="M107.476 19.946C109.11 20.6717 109.175 20.6325 109.61 18.6284C109.817 18.9048 109.877 19.225 109.911 19.5614C110.059 21.0656 109.315 21.8073 107.865 21.448C107.025 21.2383 107.55 20.469 107.476 19.946Z" fill="white"/>
<path d="M15.6613 24.8738C15.1295 25.9911 14.6093 27.1221 13.2142 27.4054C13.9992 27.9145 14.0637 27.9122 14.9845 27.3501C14.9523 27.9007 14.5747 27.9951 14.1304 27.9951C9.52393 27.9974 4.91743 27.9974 0.308631 27.9905C0.228058 27.9905 0.147485 27.8731 0.0692139 27.8132C1.23868 27.668 2.44958 27.9905 3.69732 27.4607C3.20237 27.0852 2.67289 27.1497 2.19405 27.1198C1.61392 27.0829 1.41594 26.7858 1.65306 26.3251C1.95233 25.7492 2.11578 25.0742 2.67519 24.6504C2.69821 24.6803 2.72123 24.708 2.74195 24.7402C3.06654 25.2309 2.29074 25.8897 2.9123 26.2698C3.3474 26.537 3.92983 26.3781 4.4455 26.4425C6.25725 26.666 8.07591 26.6683 9.88996 26.4449C10.7095 26.3435 11.5221 26.4449 12.3371 26.461C13.2464 26.4794 14.0107 26.2767 14.577 25.4912C14.8234 25.148 15.1157 24.7541 15.6613 24.8738Z" fill="white"/>
<path d="M27.8394 27.3272C26.6262 27.166 25.1575 27.6451 23.7739 26.9103C23.3457 26.6822 22.8093 26.9518 22.3765 27.1476C21.854 27.3848 21.4235 27.2858 21.0413 26.9379C20.5993 26.5348 21.0321 26.2192 21.1863 25.8622C22.3558 23.1716 23.9995 20.7529 25.7123 18.4056C26.3407 17.5418 27.1764 16.8853 27.2247 15.7174C27.2294 15.593 27.3675 15.4548 27.4757 15.3557C28.9928 13.9598 29.4371 11.8843 30.6779 10.3178C31.2465 9.60145 31.9625 9.02786 32.3745 8.15712C32.6301 7.61809 33.4151 7.67568 33.9008 7.74018C35.6527 7.97284 37.4 7.80237 39.1473 7.83232C40.5815 7.85536 42.0134 8.15021 43.4545 7.85536C43.8367 7.77704 44.3247 7.76783 44.4928 8.27691C44.6286 8.68694 44.5641 9.09006 44.2188 9.40565C42.6856 10.797 42.2644 12.8656 41.1202 14.4988C40.0843 15.9777 39.0875 17.4934 38.1827 19.0575C36.958 21.1768 35.7909 23.3214 34.4994 25.4061C33.6039 26.8504 32.4643 27.3019 30.9565 27.3295C29.985 27.3411 29.0158 27.3272 27.8394 27.3272Z" fill="white"/>
<path d="M51.4981 14.7937C52.8517 14.6255 54.546 14.9572 56.2496 15.0171C56.9655 15.0425 57.6493 14.9042 58.3468 14.8006C58.7243 14.743 59.072 14.8098 59.3091 15.1991C59.5393 15.5723 59.4886 15.8948 59.2722 16.2357C57.7252 18.659 56.2266 21.1192 54.6059 23.4942C53.9613 24.4409 53.2477 25.3186 52.8356 26.4058C52.4419 27.4447 51.4405 27.2259 50.6509 27.3088C48.7194 27.5139 46.8018 27.037 44.8703 27.1107C43.687 27.1568 42.5038 27.2466 41.3228 27.3319C40.7335 27.3733 40.3191 27.1591 40.0612 26.6201C39.8034 26.0718 40.3076 25.8991 40.5585 25.6319C40.9291 25.2403 41.1778 24.7818 41.3481 24.2958C41.949 22.5889 43.1092 21.2229 44.1682 19.8246C44.9532 18.788 45.3446 17.6063 45.8717 16.4776C46.4311 15.2751 47.2507 14.7154 48.5675 14.7891C49.4193 14.8328 50.2779 14.7937 51.4981 14.7937Z" fill="white"/>
<path d="M66.2108 21.948C66.266 21.6877 66.1647 21.4528 65.9115 21.4643C65.5385 21.4804 65.6191 21.8306 65.6168 22.0701C65.603 23.5605 65.5869 25.0532 65.5984 26.5436C65.6053 27.2692 65.6122 27.8635 64.5832 27.8497C63.561 27.8359 63.5795 27.2347 63.5795 26.5137C63.5841 24.0903 63.5449 21.667 63.5633 19.246C63.5679 18.7392 63.2618 17.9813 64.0169 17.8086C64.8042 17.6266 65.6237 17.6358 66.2384 18.4259C67.4286 19.9509 68.7016 21.4136 69.8964 22.9386C70.4328 23.625 70.7804 23.7425 71.3721 22.957C72.5323 21.4113 73.7916 19.937 75.0186 18.4397C75.3271 18.0642 75.6517 17.7579 76.218 17.7371C77.5094 17.6888 77.6361 17.7625 77.6269 19.0548C77.6107 21.6624 77.544 24.2723 77.5647 26.8799C77.5716 27.7276 77.1964 27.8728 76.4804 27.8405C75.8036 27.8106 75.2304 27.8405 75.2465 26.8661C75.2718 25.3066 75.3616 23.7402 75.1314 22.183C74.9127 21.4274 74.6664 21.7983 74.3832 22.1507C73.3196 23.4707 72.1893 24.7399 71.1994 26.1105C70.6124 26.9237 70.1957 26.9283 69.6133 26.1958C68.4829 24.7699 67.3434 23.3601 66.2108 21.948Z" fill="white"/>
<path d="M15.6613 24.8739C15.4864 25.0098 15.2561 25.1112 15.1479 25.2885C14.3629 26.5785 13.2602 26.8803 11.7777 26.7582C10.1017 26.6177 8.39129 26.7605 6.70616 26.901C5.35943 27.0116 4.06335 26.4726 2.71432 26.719C2.21476 26.8112 2.20325 26.3643 2.27001 26.0349C2.3667 25.565 2.53475 25.1112 2.67288 24.6481C4.00119 22.1373 5.68172 19.8406 7.15046 17.415C8.50409 15.1806 9.92909 12.9715 11.3817 10.7877C12.3923 9.26967 13.624 7.83226 14.1788 6.01246C14.3284 5.5195 14.5931 4.99199 15.1157 4.6741C15.4679 4.45987 15.6728 4.08209 15.8294 3.69509C16.7019 1.53897 17.671 0.891673 19.9847 0.907798C22.1233 0.923922 24.2643 0.903194 26.3845 1.29249C26.9255 1.39155 27.3629 1.02297 27.7703 0.691264C28.1341 0.691264 28.4978 0.688965 28.8615 0.688965C29.6627 1.8154 29.6926 2.65619 28.659 3.87016C26.8242 6.02398 25.6501 8.59704 24.1883 10.9697C22.9428 12.9922 21.8632 15.1621 20.4865 17.104C19.271 18.8179 18.1476 20.5985 16.9114 22.2985C16.3773 23.0334 16.078 24.0101 15.6613 24.8739Z" fill="white"/>
<path d="M90.0513 21.9387C90.1871 23.0506 89.7267 23.4604 88.5986 23.3153C87.7929 23.2117 86.9642 23.2831 86.1469 23.2969C85.6451 23.3038 85.2767 23.2371 85.2951 22.5856C85.3112 21.9847 85.6681 21.9571 86.1124 21.9525C87.4131 21.9433 88.7137 21.9203 90.0167 21.9019C90.0144 21.9042 90.0513 21.9387 90.0513 21.9387Z" fill="white"/>
</svg>
