<svg width="13" height="13" viewBox="0 0 13 13" fill="none" xmlns="http://www.w3.org/2000/svg">
<path d="M12.4983 7.70015C11.8328 7.03451 11.8328 5.96546 12.4983 5.29983C13.1638 4.6342 13.1638 3.56517 12.4983 2.89954L10.0985 0.499224C9.43299 -0.166408 8.36415 -0.166408 7.69864 0.499224C7.03314 1.16486 5.96432 1.16486 5.29881 0.499224C4.63331 -0.166408 3.56447 -0.166408 2.89897 0.499224L0.499126 2.89954C-0.166375 3.56517 -0.166375 4.6342 0.499126 5.29983C1.16463 5.96546 1.16463 7.03451 0.499126 7.70015C-0.166375 8.36578 -0.166375 9.43483 0.499126 10.1005L2.89897 12.5008C3.56447 13.1664 4.63331 13.1664 5.29881 12.5008C5.96432 11.8351 7.03314 11.8351 7.69864 12.5008C8.36415 13.1664 9.43299 13.1664 10.0985 12.5008L12.5185 10.1005C13.1638 9.455 13.1638 8.36578 12.4983 7.70015ZM3.14097 9.85842C1.28564 8.00272 1.28564 4.99727 3.14097 3.16174C4.99631 1.32621 8.00115 1.30604 9.83632 3.16174C11.6917 5.01745 11.6917 8.02289 9.83632 9.85842C8.00115 11.694 4.99631 11.694 3.14097 9.85842Z" fill="white"/>
</svg>
